<?xml version="1.0" encoding="UTF-8"?>
<svg height="16px" viewBox="0 0 16 16" width="16px" xmlns="http://www.w3.org/2000/svg">
    <g fill="#241f31">
        <path d="m 2.5 2 c -0.277344 0 -0.5 0.222656 -0.5 0.5 v 5 c 0 0.277344 0.222656 0.5 0.5 0.5 h 1.5 v -1.5 c 0 -1.367188 1.132812 -2.5 2.5 -2.5 h 1.5 v -1.5 c 0 -0.277344 -0.222656 -0.5 -0.5 -0.5 z m 0 0"/>
        <path d="m 6.5 5 c -0.832031 0 -1.5 0.667969 -1.5 1.5 v 3 c 0 0.832031 0.667969 1.5 1.5 1.5 h 0.53125 c 0.230469 -2.074219 1.894531 -3.738281 3.96875 -3.96875 v -0.53125 c 0 -0.832031 -0.667969 -1.5 -1.5 -1.5 z m 0 0"/>
        <path d="m 15 11.5 c 0 1.933594 -1.566406 3.5 -3.5 3.5 s -3.5 -1.566406 -3.5 -3.5 s 1.566406 -3.5 3.5 -3.5 s 3.5 1.566406 3.5 3.5 z m 0 0"/>
    </g>
</svg>
