<?xml version="1.0" encoding="UTF-8" standalone="no"?>
<svg
   xmlns:dc="http://purl.org/dc/elements/1.1/"
   xmlns:cc="http://creativecommons.org/ns#"
   xmlns:rdf="http://www.w3.org/1999/02/22-rdf-syntax-ns#"
   xmlns:svg="http://www.w3.org/2000/svg"
   xmlns="http://www.w3.org/2000/svg"
   xmlns:sodipodi="http://sodipodi.sourceforge.net/DTD/sodipodi-0.dtd"
   xmlns:inkscape="http://www.inkscape.org/namespaces/inkscape"
   inkscape:version="1.0 (4035a4fb49, 2020-05-01)"
   sodipodi:docname="boop-gtk-broom-symbolic.svg"
   id="svg8"
   version="1.1"
   viewBox="0 0 22 22"
   height="22pt"
   width="22pt"><metadata
   id="metadata14">
  <rdf:RDF>
    <cc:Work
       rdf:about="">
      <dc:format>image/svg+xml</dc:format>
      <dc:type
         rdf:resource="http://purl.org/dc/dcmitype/StillImage" />
    </cc:Work>
  </rdf:RDF>
</metadata>
<defs
   id="defs12" />
<sodipodi:namedview
   inkscape:current-layer="svg8"
   inkscape:window-maximized="0"
   inkscape:window-y="0"
   inkscape:window-x="0"
   inkscape:cy="14.666667"
   inkscape:cx="14.666667"
   inkscape:zoom="28.909091"
   showgrid="false"
   id="namedview10"
   inkscape:window-height="1052"
   inkscape:window-width="1503"
   inkscape:pageshadow="2"
   inkscape:pageopacity="0"
   guidetolerance="10"
   gridtolerance="10"
   objecttolerance="10"
   borderopacity="1"
   bordercolor="#666666"
   pagecolor="#ffffff" />
<g
   id="surface1">
  <path
     id="path2"
     d="M 2.933594 5.132812 C 2.53125 5.132812 2.199219 5.460938 2.199219 5.867188 C 2.199219 6.269531 2.53125 6.601562 2.933594 6.601562 C 3.335938 6.601562 3.667969 6.269531 3.667969 5.867188 C 3.667969 5.460938 3.335938 5.132812 2.933594 5.132812 Z M 4.398438 7.332031 C 3.589844 7.332031 2.933594 7.988281 2.933594 8.800781 C 2.933594 9.609375 3.589844 10.265625 4.398438 10.265625 C 5.210938 10.265625 5.867188 9.609375 5.867188 8.800781 C 5.867188 7.988281 5.210938 7.332031 4.398438 7.332031 Z M 16.886719 9.96875 L 14.054688 8.363281 L 18.160156 2.582031 C 18.429688 2.203125 18.941406 2.089844 19.339844 2.316406 C 19.746094 2.542969 19.910156 3.039062 19.726562 3.464844 Z M 16.886719 9.96875 "
     style=" stroke:none;fill-rule:nonzero;fill:rgb(0%,0%,0%);fill-opacity:1;" />
  <path
     id="path4"
     d="M 18.175781 8.910156 L 14.042969 6.601562 C 13.410156 6.25 12.625 6.382812 12.144531 6.921875 L 11.285156 7.894531 L 18.5 11.972656 L 18.890625 10.703125 C 19.105469 10.011719 18.808594 9.265625 18.175781 8.910156 Z M 14.191406 19.800781 L 11.40625 18.511719 C 11.40625 18.511719 13.195312 16.65625 13.703125 15.535156 C 11.101562 17.09375 9.007812 17.191406 9.007812 17.191406 L 7.054688 15.992188 C 7.054688 15.992188 7.535156 15.730469 8.308594 15.207031 C 7.492188 15.375 5.796875 15.195312 5.796875 15.195312 L 2.199219 13.023438 C 2.199219 13.023438 6.648438 12.878906 10.273438 9.183594 L 18.035156 13.558594 C 16.484375 18.136719 14.191406 19.800781 14.191406 19.800781 Z M 14.191406 19.800781 "
     style=" stroke:none;fill-rule:nonzero;fill:rgb(0%,0%,0%);fill-opacity:1;" />
</g>
<g
   style="opacity:1"
   id="g16">
  <path
     id="path18"
     d="M 0,0 V 0"
     style="color:#000000;font-style:normal;font-variant:normal;font-weight:normal;font-stretch:normal;font-size:medium;line-height:normal;font-family:sans-serif;font-variant-ligatures:normal;font-variant-position:normal;font-variant-caps:normal;font-variant-numeric:normal;font-variant-alternates:normal;font-variant-east-asian:normal;font-feature-settings:normal;font-variation-settings:normal;text-indent:0;text-align:start;text-decoration:none;text-decoration-line:none;text-decoration-style:solid;text-decoration-color:#000000;letter-spacing:normal;word-spacing:normal;text-transform:none;writing-mode:lr-tb;direction:ltr;text-orientation:mixed;dominant-baseline:auto;baseline-shift:baseline;text-anchor:start;white-space:normal;shape-padding:0;shape-margin:0;inline-size:0;clip-rule:nonzero;display:inline;overflow:visible;visibility:visible;isolation:auto;mix-blend-mode:normal;color-interpolation:sRGB;color-interpolation-filters:linearRGB;solid-color:#000000;solid-opacity:1;vector-effect:none;fill:#000000;fill-opacity:1;fill-rule:nonzero;stroke:none;stroke-width:1;stroke-linecap:butt;stroke-linejoin:miter;stroke-miterlimit:4;stroke-dasharray:none;stroke-dashoffset:0;stroke-opacity:1.0;color-rendering:auto;image-rendering:auto;shape-rendering:auto;text-rendering:auto;enable-background:accumulate;stop-color:#000000;stop-opacity:1;" />
  <path
     id="path20"
     d="M 0 -0.5 L 0 0.5 L 0 -0.5 z "
     style="color:#000000;font-style:normal;font-variant:normal;font-weight:normal;font-stretch:normal;font-size:medium;line-height:normal;font-family:sans-serif;font-variant-ligatures:normal;font-variant-position:normal;font-variant-caps:normal;font-variant-numeric:normal;font-variant-alternates:normal;font-variant-east-asian:normal;font-feature-settings:normal;font-variation-settings:normal;text-indent:0;text-align:start;text-decoration:none;text-decoration-line:none;text-decoration-style:solid;text-decoration-color:#000000;letter-spacing:normal;word-spacing:normal;text-transform:none;writing-mode:lr-tb;direction:ltr;text-orientation:mixed;dominant-baseline:auto;baseline-shift:baseline;text-anchor:start;white-space:normal;shape-padding:0;shape-margin:0;inline-size:0;clip-rule:nonzero;display:inline;overflow:visible;visibility:visible;isolation:auto;mix-blend-mode:normal;color-interpolation:sRGB;color-interpolation-filters:linearRGB;solid-color:#000000;solid-opacity:1;vector-effect:none;fill:#000000;fill-opacity:1;fill-rule:nonzero;stroke:none;stroke-width:1;stroke-linecap:butt;stroke-linejoin:miter;stroke-miterlimit:4;stroke-dasharray:none;stroke-dashoffset:0;stroke-opacity:1.0;color-rendering:auto;image-rendering:auto;shape-rendering:auto;text-rendering:auto;enable-background:accumulate;stop-color:#000000;stop-opacity:1;" />
</g>
\n    </svg>
