<?xml version="1.0" encoding="UTF-8"?>
<svg xmlns="http://www.w3.org/2000/svg" xmlns:xlink="http://www.w3.org/1999/xlink" width="25pt" height="25pt" viewBox="0 0 25 25" version="1.1">
<g id="surface1">
<path style=" stroke:none;fill-rule:nonzero;fill:rgb(0%,0%,0%);fill-opacity:1;" d="M 8.378906 4.167969 C 7.164062 4.167969 6.113281 5.054688 5.914062 6.253906 L 3.644531 19.863281 C 3.605469 20.105469 3.671875 20.351562 3.832031 20.539062 C 3.988281 20.726562 4.222656 20.832031 4.464844 20.832031 L 21.964844 20.832031 C 22.375 20.832031 22.722656 20.539062 22.789062 20.136719 L 24.964844 7.078125 C 25.21875 5.570312 24.027344 4.167969 22.5 4.167969 Z M 0.832031 9.167969 C 0.53125 9.164062 0.253906 9.320312 0.101562 9.578125 C -0.0507812 9.839844 -0.0507812 10.160156 0.101562 10.421875 C 0.253906 10.679688 0.53125 10.835938 0.832031 10.832031 L 2.753906 10.832031 C 3.054688 10.835938 3.335938 10.679688 3.488281 10.421875 C 3.636719 10.160156 3.636719 9.839844 3.488281 9.578125 C 3.335938 9.320312 3.054688 9.164062 2.753906 9.167969 Z M 7.117188 9.167969 L 22.929688 9.167969 L 21.261719 19.167969 L 5.449219 19.167969 Z M 9.914062 11.667969 C 9.519531 11.667969 9.175781 11.945312 9.101562 12.335938 L 8.4375 15.671875 C 8.386719 15.914062 8.449219 16.167969 8.609375 16.363281 C 8.765625 16.554688 9.003906 16.667969 9.253906 16.667969 L 18.417969 16.667969 C 18.816406 16.667969 19.160156 16.386719 19.238281 15.996094 L 19.902344 12.664062 C 19.949219 12.417969 19.886719 12.164062 19.726562 11.972656 C 19.570312 11.777344 19.332031 11.667969 19.082031 11.667969 Z M 0.832031 12.5 C 0.53125 12.496094 0.253906 12.652344 0.101562 12.914062 C -0.0507812 13.171875 -0.0507812 13.492188 0.101562 13.753906 C 0.253906 14.011719 0.53125 14.171875 0.832031 14.167969 L 2.25 14.167969 C 2.550781 14.171875 2.832031 14.011719 2.984375 13.753906 C 3.132812 13.492188 3.132812 13.171875 2.984375 12.914062 C 2.832031 12.652344 2.550781 12.496094 2.25 12.5 Z M 0.832031 15.832031 C 0.53125 15.828125 0.253906 15.988281 0.101562 16.246094 C -0.0507812 16.507812 -0.0507812 16.828125 0.101562 17.085938 C 0.253906 17.347656 0.53125 17.503906 0.832031 17.5 L 1.746094 17.5 C 2.046875 17.503906 2.328125 17.347656 2.476562 17.085938 C 2.628906 16.828125 2.628906 16.507812 2.476562 16.246094 C 2.328125 15.988281 2.046875 15.828125 1.746094 15.832031 Z M 0.832031 15.832031 "/>
</g>
</svg>
