<?xml version="1.0" encoding="UTF-8"?>
<svg xmlns="http://www.w3.org/2000/svg" xmlns:xlink="http://www.w3.org/1999/xlink" width="25pt" height="25pt" viewBox="0 0 25 25" version="1.1">
<g id="surface1">
<path style=" stroke:none;fill-rule:nonzero;fill:rgb(0%,0%,0%);fill-opacity:1;" d="M 5.832031 1.667969 C 4.921875 1.667969 4.167969 2.421875 4.167969 3.332031 L 4.167969 7.359375 C 4.152344 7.449219 4.152344 7.542969 4.167969 7.632812 L 4.167969 12.359375 C 4.152344 12.449219 4.152344 12.542969 4.167969 12.632812 L 4.167969 17.359375 C 4.152344 17.449219 4.152344 17.542969 4.167969 17.632812 L 4.167969 21.667969 C 4.167969 22.578125 4.921875 23.332031 5.832031 23.332031 L 19.167969 23.332031 C 20.078125 23.332031 20.832031 22.578125 20.832031 21.667969 L 20.832031 17.640625 C 20.847656 17.550781 20.847656 17.457031 20.832031 17.367188 L 20.832031 12.640625 C 20.847656 12.550781 20.847656 12.457031 20.832031 12.367188 L 20.832031 7.640625 C 20.847656 7.550781 20.847656 7.457031 20.832031 7.367188 L 20.832031 3.332031 C 20.832031 2.421875 20.078125 1.667969 19.167969 1.667969 Z M 5.832031 3.332031 L 19.167969 3.332031 L 19.167969 6.667969 L 17.5 6.667969 C 17.503906 6.441406 17.414062 6.222656 17.253906 6.066406 C 17.097656 5.90625 16.878906 5.820312 16.652344 5.820312 C 16.195312 5.828125 15.828125 6.207031 15.832031 6.667969 L 12.5 6.667969 C 12.503906 6.441406 12.414062 6.222656 12.253906 6.066406 C 12.097656 5.90625 11.878906 5.820312 11.652344 5.820312 C 11.195312 5.828125 10.828125 6.207031 10.832031 6.667969 L 9.167969 6.667969 C 9.167969 6.441406 9.082031 6.222656 8.921875 6.066406 C 8.761719 5.90625 8.546875 5.820312 8.320312 5.820312 C 7.859375 5.828125 7.492188 6.207031 7.5 6.667969 L 5.832031 6.667969 Z M 5.832031 8.332031 L 7.5 8.332031 C 7.496094 8.632812 7.652344 8.914062 7.914062 9.066406 C 8.171875 9.214844 8.492188 9.214844 8.753906 9.066406 C 9.011719 8.914062 9.171875 8.632812 9.167969 8.332031 L 10.832031 8.332031 C 10.828125 8.632812 10.988281 8.914062 11.246094 9.066406 C 11.507812 9.214844 11.828125 9.214844 12.085938 9.066406 C 12.347656 8.914062 12.503906 8.632812 12.5 8.332031 L 15.832031 8.332031 C 15.828125 8.632812 15.988281 8.914062 16.246094 9.066406 C 16.507812 9.214844 16.828125 9.214844 17.085938 9.066406 C 17.347656 8.914062 17.503906 8.632812 17.5 8.332031 L 19.167969 8.332031 L 19.167969 11.667969 L 15.832031 11.667969 C 15.835938 11.441406 15.75 11.222656 15.589844 11.066406 C 15.429688 10.90625 15.210938 10.820312 14.988281 10.820312 C 14.527344 10.828125 14.160156 11.207031 14.167969 11.667969 L 12.5 11.667969 C 12.503906 11.441406 12.414062 11.222656 12.253906 11.066406 C 12.097656 10.90625 11.878906 10.820312 11.652344 10.820312 C 11.195312 10.828125 10.828125 11.207031 10.832031 11.667969 L 9.167969 11.667969 C 9.167969 11.441406 9.082031 11.222656 8.921875 11.066406 C 8.761719 10.90625 8.546875 10.820312 8.320312 10.820312 C 7.859375 10.828125 7.492188 11.207031 7.5 11.667969 L 5.832031 11.667969 Z M 5.832031 13.332031 L 7.5 13.332031 C 7.496094 13.632812 7.652344 13.914062 7.914062 14.066406 C 8.171875 14.214844 8.492188 14.214844 8.753906 14.066406 C 9.011719 13.914062 9.171875 13.632812 9.167969 13.332031 L 10.832031 13.332031 C 10.828125 13.632812 10.988281 13.914062 11.246094 14.066406 C 11.507812 14.214844 11.828125 14.214844 12.085938 14.066406 C 12.347656 13.914062 12.503906 13.632812 12.5 13.332031 L 14.167969 13.332031 C 14.164062 13.632812 14.320312 13.914062 14.578125 14.066406 C 14.839844 14.214844 15.160156 14.214844 15.421875 14.066406 C 15.679688 13.914062 15.835938 13.632812 15.832031 13.332031 L 19.167969 13.332031 L 19.167969 16.667969 L 17.5 16.667969 C 17.503906 16.441406 17.414062 16.222656 17.253906 16.066406 C 17.097656 15.90625 16.878906 15.820312 16.652344 15.820312 C 16.195312 15.828125 15.828125 16.207031 15.832031 16.667969 L 14.167969 16.667969 C 14.167969 16.441406 14.082031 16.222656 13.921875 16.066406 C 13.761719 15.90625 13.546875 15.820312 13.320312 15.820312 C 12.859375 15.828125 12.492188 16.207031 12.5 16.667969 L 9.167969 16.667969 C 9.167969 16.441406 9.082031 16.222656 8.921875 16.066406 C 8.761719 15.90625 8.546875 15.820312 8.320312 15.820312 C 7.859375 15.828125 7.492188 16.207031 7.5 16.667969 L 5.832031 16.667969 Z M 5.832031 18.332031 L 7.5 18.332031 C 7.496094 18.632812 7.652344 18.914062 7.914062 19.066406 C 8.171875 19.214844 8.492188 19.214844 8.753906 19.066406 C 9.011719 18.914062 9.171875 18.632812 9.167969 18.332031 L 12.5 18.332031 C 12.496094 18.632812 12.652344 18.914062 12.914062 19.066406 C 13.171875 19.214844 13.492188 19.214844 13.753906 19.066406 C 14.011719 18.914062 14.171875 18.632812 14.167969 18.332031 L 15.832031 18.332031 C 15.828125 18.632812 15.988281 18.914062 16.246094 19.066406 C 16.507812 19.214844 16.828125 19.214844 17.085938 19.066406 C 17.347656 18.914062 17.503906 18.632812 17.5 18.332031 L 19.167969 18.332031 L 19.167969 21.667969 L 5.832031 21.667969 Z M 5.832031 18.332031 "/>
</g>
</svg>
