<?xml version="1.0" encoding="UTF-8"?>
<svg xmlns="http://www.w3.org/2000/svg" xmlns:xlink="http://www.w3.org/1999/xlink" width="25pt" height="25pt" viewBox="0 0 25 25" version="1.1">
<g id="surface1">
<path style=" stroke:none;fill-rule:nonzero;fill:rgb(0%,0%,0%);fill-opacity:1;" d="M 19.433594 4.167969 C 17.160156 4.167969 16.667969 5 16.667969 5 C 16.339844 4.132812 15.578125 3.332031 14.167969 3.332031 C 13.128906 3.332031 11.667969 4.316406 11.667969 6.5 C 11.667969 10.058594 13.832031 11.832031 13.855469 11.851562 C 14.214844 12.136719 14.273438 12.664062 13.984375 13.019531 C 13.820312 13.226562 13.578125 13.332031 13.332031 13.332031 C 13.148438 13.332031 12.964844 13.273438 12.8125 13.148438 C 12.699219 13.058594 10 10.847656 10 6.5 C 10 5.585938 10.1875 4.8125 10.492188 4.167969 C 9.730469 4.167969 8.734375 4.167969 7.621094 4.167969 C 4.84375 4.167969 2.5 6.75 2.5 10 C 2.5 13.550781 4.824219 13.9375 4.992188 20.863281 C 5 21.3125 5.375 21.667969 5.824219 21.667969 L 8.332031 21.667969 C 8.792969 21.667969 9.167969 21.292969 9.167969 20.832031 L 9.167969 17.917969 C 9.167969 17.226562 9.726562 16.667969 10.417969 16.667969 C 11.105469 16.667969 11.667969 17.226562 11.667969 17.917969 L 11.667969 20.832031 C 11.667969 21.292969 12.039062 21.667969 12.5 21.667969 L 14.652344 21.667969 C 15.113281 21.667969 15.488281 21.296875 15.488281 20.835938 C 15.480469 18.667969 16.316406 12.5 18.332031 12.5 C 19.632812 12.5 20.941406 13.929688 20.832031 16.421875 C 20.832031 18.59375 19.539062 19.492188 18.8125 19.824219 C 18.515625 19.960938 18.332031 20.269531 18.332031 20.597656 C 18.332031 21.191406 18.925781 21.613281 19.484375 21.410156 C 22.078125 20.472656 24.167969 17.128906 24.167969 10.832031 C 24.167969 5.703125 21.382812 4.167969 19.433594 4.167969 Z M 21.667969 10.832031 C 21.167969 10.832031 20.832031 10.5 20.832031 10 C 20.832031 9.5 21.167969 9.167969 21.667969 9.167969 C 22.167969 9.167969 22.5 9.5 22.5 10 C 22.5 10.5 22.167969 10.832031 21.667969 10.832031 Z M 21.667969 10.832031 "/>
</g>
</svg>
