<?xml version="1.0" encoding="UTF-8"?>
<svg xmlns="http://www.w3.org/2000/svg" xmlns:xlink="http://www.w3.org/1999/xlink" width="25pt" height="25pt" viewBox="0 0 25 25" version="1.1">
<g id="surface1">
<path style=" stroke:none;fill-rule:nonzero;fill:rgb(0%,0%,0%);fill-opacity:1;" d="M 12.5 2.5 C 6.988281 2.5 2.5 6.988281 2.5 12.5 C 2.5 18.011719 6.988281 22.5 12.5 22.5 C 18.011719 22.5 22.5 18.011719 22.5 12.5 C 22.5 6.988281 18.011719 2.5 12.5 2.5 Z M 11.667969 4.207031 L 11.667969 5.832031 L 10 5.832031 L 10 4.546875 C 10.535156 4.378906 11.09375 4.265625 11.667969 4.207031 Z M 13.332031 4.207031 C 14.773438 4.351562 16.105469 4.859375 17.234375 5.640625 L 16.667969 5.832031 L 16.667969 6.667969 L 15.832031 6.667969 L 15 7.5 L 15 9.167969 L 16.667969 8.332031 L 19.167969 9.167969 L 18.332031 10.832031 L 16.667969 10 L 15 10 L 13.332031 11.667969 L 13.332031 13.332031 L 15 15 L 16.667969 15 L 17.5 16.667969 L 15.742188 20.179688 C 14.746094 20.601562 13.652344 20.832031 12.5 20.832031 C 12.195312 20.832031 11.894531 20.816406 11.59375 20.78125 L 9.972656 19.195312 L 10 15.832031 L 7.5 13.332031 L 5 13.332031 L 5 11.667969 L 9.167969 9.167969 L 9.167969 7.5 L 10.832031 7.5 L 11.667969 8.332031 L 13.332031 7.5 Z M 13.332031 4.207031 "/>
</g>
</svg>
