<?xml version="1.0" encoding="UTF-8"?>
<svg xmlns="http://www.w3.org/2000/svg" xmlns:xlink="http://www.w3.org/1999/xlink" width="25pt" height="25pt" viewBox="0 0 25 25" version="1.1">
<g id="surface1">
<path style=" stroke:none;fill-rule:nonzero;fill:rgb(0%,0%,0%);fill-opacity:1;" d="M 9.167969 3.332031 C 8.867188 3.328125 8.585938 3.488281 8.433594 3.746094 C 8.285156 4.007812 8.285156 4.328125 8.433594 4.585938 C 8.585938 4.847656 8.867188 5.003906 9.167969 5 L 9.167969 11.667969 L 3.710938 18.945312 C 3.464844 19.246094 3.332031 19.617188 3.332031 20 C 3.332031 20.921875 4.078125 21.667969 5 21.667969 L 20 21.667969 C 20.921875 21.667969 21.667969 20.921875 21.667969 20 C 21.667969 19.617188 21.535156 19.246094 21.289062 18.945312 L 15.832031 11.667969 L 15.832031 5 C 16.132812 5.003906 16.414062 4.847656 16.566406 4.585938 C 16.714844 4.328125 16.714844 4.007812 16.566406 3.746094 C 16.414062 3.488281 16.132812 3.328125 15.832031 3.332031 Z M 10.832031 5 L 14.167969 5 L 14.167969 10 L 10.832031 10 Z M 11.667969 11.667969 C 12.125 11.667969 12.5 12.039062 12.5 12.5 C 12.5 12.960938 12.125 13.332031 11.667969 13.332031 C 11.207031 13.332031 10.832031 12.960938 10.832031 12.5 C 10.832031 12.039062 11.207031 11.667969 11.667969 11.667969 Z M 14.582031 16.667969 C 15.273438 16.667969 15.832031 17.226562 15.832031 17.917969 C 15.832031 18.605469 15.273438 19.167969 14.582031 19.167969 C 13.894531 19.167969 13.332031 18.605469 13.332031 17.917969 C 13.332031 17.226562 13.894531 16.667969 14.582031 16.667969 Z M 14.582031 16.667969 "/>
</g>
</svg>
