<?xml version="1.0" encoding="UTF-8"?>
<svg xmlns="http://www.w3.org/2000/svg" xmlns:xlink="http://www.w3.org/1999/xlink" width="25pt" height="25pt" viewBox="0 0 25 25" version="1.1">
<g id="surface1">
<path style=" stroke:none;fill-rule:nonzero;fill:rgb(0%,0%,0%);fill-opacity:1;" d="M 12.488281 1.65625 C 12.027344 1.664062 11.660156 2.039062 11.667969 2.5 L 11.667969 5.832031 L 10 5.832031 C 9.664062 5.832031 9.359375 6.035156 9.230469 6.347656 C 9.101562 6.660156 9.171875 7.015625 9.410156 7.253906 L 11.835938 9.683594 C 11.964844 9.851562 12.152344 9.964844 12.359375 10 L 3.332031 10 C 3.03125 9.996094 2.753906 10.152344 2.601562 10.414062 C 2.449219 10.671875 2.449219 10.992188 2.601562 11.253906 C 2.753906 11.511719 3.03125 11.671875 3.332031 11.667969 L 21.667969 11.667969 C 21.96875 11.671875 22.246094 11.511719 22.398438 11.253906 C 22.550781 10.992188 22.550781 10.671875 22.398438 10.414062 C 22.246094 10.152344 21.96875 9.996094 21.667969 10 L 12.632812 10 C 12.839844 9.964844 13.03125 9.855469 13.160156 9.6875 L 15.589844 7.253906 C 15.828125 7.015625 15.898438 6.660156 15.769531 6.347656 C 15.640625 6.035156 15.335938 5.832031 15 5.832031 L 13.332031 5.832031 L 13.332031 2.5 C 13.335938 2.273438 13.25 2.058594 13.089844 1.898438 C 12.929688 1.738281 12.710938 1.652344 12.488281 1.65625 Z M 3.332031 13.332031 C 3.03125 13.328125 2.753906 13.488281 2.601562 13.746094 C 2.449219 14.007812 2.449219 14.328125 2.601562 14.585938 C 2.753906 14.847656 3.03125 15.003906 3.332031 15 L 12.367188 15 C 12.160156 15.035156 11.96875 15.144531 11.839844 15.3125 L 9.410156 17.746094 C 9.171875 17.984375 9.101562 18.339844 9.230469 18.652344 C 9.359375 18.964844 9.664062 19.167969 10 19.167969 L 11.667969 19.167969 L 11.667969 22.5 C 11.664062 22.800781 11.820312 23.078125 12.078125 23.230469 C 12.339844 23.382812 12.660156 23.382812 12.921875 23.230469 C 13.179688 23.078125 13.335938 22.800781 13.332031 22.5 L 13.332031 19.167969 L 15 19.167969 C 15.335938 19.167969 15.640625 18.964844 15.769531 18.652344 C 15.898438 18.339844 15.828125 17.984375 15.589844 17.746094 L 13.164062 15.316406 C 13.035156 15.148438 12.847656 15.035156 12.640625 15 L 21.667969 15 C 21.96875 15.003906 22.246094 14.847656 22.398438 14.585938 C 22.550781 14.328125 22.550781 14.007812 22.398438 13.746094 C 22.246094 13.488281 21.96875 13.328125 21.667969 13.332031 Z M 3.332031 13.332031 "/>
</g>
</svg>
