<?xml version="1.0" encoding="UTF-8"?>
<svg xmlns="http://www.w3.org/2000/svg" xmlns:xlink="http://www.w3.org/1999/xlink" width="25pt" height="25pt" viewBox="0 0 25 25" version="1.1">
<g id="surface1">
<path style=" stroke:none;fill-rule:nonzero;fill:rgb(0%,0%,0%);fill-opacity:1;" d="M 5 3.332031 C 4.089844 3.332031 3.332031 4.089844 3.332031 5 L 3.332031 14.167969 C 3.332031 15.078125 4.089844 15.832031 5 15.832031 L 9.167969 15.832031 L 9.167969 20 C 9.167969 20.921875 9.914062 21.667969 10.832031 21.667969 L 20 21.667969 C 20.921875 21.667969 21.667969 20.921875 21.667969 20 L 21.667969 10.832031 C 21.667969 9.914062 20.921875 9.167969 20 9.167969 L 15.832031 9.167969 L 15.832031 5 C 15.832031 4.089844 15.078125 3.332031 14.167969 3.332031 Z M 5 5 L 14.167969 5 L 14.167969 10 L 10 14.167969 L 5 14.167969 Z M 9.167969 6.25 L 9.167969 7.5 L 6.667969 7.5 L 6.667969 8.332031 L 10.832031 8.332031 C 10.832031 9.625 10.46875 10.398438 9.800781 10.910156 C 9.617188 11.046875 9.398438 11.164062 9.160156 11.265625 C 8.890625 11.132812 8.636719 10.980469 8.425781 10.800781 C 7.828125 10.300781 7.5 9.660156 7.5 9.167969 L 6.667969 9.167969 C 6.667969 9.996094 7.144531 10.816406 7.886719 11.441406 C 7.9375 11.480469 7.996094 11.515625 8.046875 11.554688 C 7.628906 11.621094 7.179688 11.667969 6.667969 11.667969 L 6.667969 12.5 C 7.597656 12.5 8.421875 12.402344 9.128906 12.171875 C 9.648438 12.375 10.21875 12.5 10.832031 12.5 L 10.832031 11.667969 C 10.628906 11.667969 10.433594 11.640625 10.242188 11.613281 C 10.261719 11.597656 10.285156 11.585938 10.304688 11.570312 C 11.195312 10.890625 11.667969 9.792969 11.667969 8.332031 L 12.5 8.332031 L 12.5 7.5 L 10 7.5 L 10 6.25 Z M 14.503906 12.480469 L 16.328125 12.480469 L 18.300781 18.351562 L 16.675781 18.351562 L 16.308594 17.0625 L 14.390625 17.0625 L 14.011719 18.351562 L 12.53125 18.351562 Z M 15.320312 13.804688 L 14.675781 15.988281 L 16.027344 15.988281 L 15.398438 13.804688 Z M 15.320312 13.804688 "/>
</g>
</svg>
