<?xml version="1.0" encoding="UTF-8" standalone="no"?>
<svg
   xmlns:dc="http://purl.org/dc/elements/1.1/"
   xmlns:cc="http://creativecommons.org/ns#"
   xmlns:rdf="http://www.w3.org/1999/02/22-rdf-syntax-ns#"
   xmlns:svg="http://www.w3.org/2000/svg"
   xmlns="http://www.w3.org/2000/svg"
   xmlns:sodipodi="http://sodipodi.sourceforge.net/DTD/sodipodi-0.dtd"
   xmlns:inkscape="http://www.inkscape.org/namespaces/inkscape"
   inkscape:version="1.0 (4035a4fb49, 2020-05-01)"
   sodipodi:docname="boop-gtk-flask-symbolic.svg"
   id="svg6"
   version="1.1"
   viewBox="0 0 25 25"
   height="25pt"
   width="25pt"><metadata
   id="metadata12">
  <rdf:RDF>
    <cc:Work
       rdf:about="">
      <dc:format>image/svg+xml</dc:format>
      <dc:type
         rdf:resource="http://purl.org/dc/dcmitype/StillImage" />
    </cc:Work>
  </rdf:RDF>
</metadata>
<defs
   id="defs10" />
<sodipodi:namedview
   inkscape:current-layer="svg6"
   inkscape:window-maximized="0"
   inkscape:window-y="0"
   inkscape:window-x="0"
   inkscape:cy="16.666667"
   inkscape:cx="16.666667"
   inkscape:zoom="25.44"
   showgrid="false"
   id="namedview8"
   inkscape:window-height="1052"
   inkscape:window-width="1503"
   inkscape:pageshadow="2"
   inkscape:pageopacity="0"
   guidetolerance="10"
   gridtolerance="10"
   objecttolerance="10"
   borderopacity="1"
   bordercolor="#666666"
   pagecolor="#ffffff" />
<g
   id="surface1">
  <path
     id="path2"
     d="M 9.167969 3.332031 C 8.867188 3.328125 8.585938 3.488281 8.433594 3.746094 C 8.285156 4.007812 8.285156 4.328125 8.433594 4.585938 C 8.585938 4.847656 8.867188 5.003906 9.167969 5 L 9.167969 11.667969 L 3.710938 18.945312 C 3.464844 19.246094 3.332031 19.617188 3.332031 20 C 3.332031 20.921875 4.078125 21.667969 5 21.667969 L 20 21.667969 C 20.921875 21.667969 21.667969 20.921875 21.667969 20 C 21.667969 19.617188 21.535156 19.246094 21.289062 18.945312 L 15.832031 11.667969 L 15.832031 5 C 16.132812 5.003906 16.414062 4.847656 16.566406 4.585938 C 16.714844 4.328125 16.714844 4.007812 16.566406 3.746094 C 16.414062 3.488281 16.132812 3.328125 15.832031 3.332031 Z M 10.832031 5 L 14.167969 5 L 14.167969 10 L 10.832031 10 Z M 11.667969 11.667969 C 12.125 11.667969 12.5 12.039062 12.5 12.5 C 12.5 12.960938 12.125 13.332031 11.667969 13.332031 C 11.207031 13.332031 10.832031 12.960938 10.832031 12.5 C 10.832031 12.039062 11.207031 11.667969 11.667969 11.667969 Z M 14.582031 16.667969 C 15.273438 16.667969 15.832031 17.226562 15.832031 17.917969 C 15.832031 18.605469 15.273438 19.167969 14.582031 19.167969 C 13.894531 19.167969 13.332031 18.605469 13.332031 17.917969 C 13.332031 17.226562 13.894531 16.667969 14.582031 16.667969 Z M 14.582031 16.667969 "
     style=" stroke:none;fill-rule:nonzero;fill:rgb(0%,0%,0%);fill-opacity:1;" />
</g>
<g
   style="opacity:1"
   id="g14">
  <path
     id="path16"
     d="M 0,0 V 0"
     style="color:#000000;font-style:normal;font-variant:normal;font-weight:normal;font-stretch:normal;font-size:medium;line-height:normal;font-family:sans-serif;font-variant-ligatures:normal;font-variant-position:normal;font-variant-caps:normal;font-variant-numeric:normal;font-variant-alternates:normal;font-variant-east-asian:normal;font-feature-settings:normal;font-variation-settings:normal;text-indent:0;text-align:start;text-decoration:none;text-decoration-line:none;text-decoration-style:solid;text-decoration-color:#000000;letter-spacing:normal;word-spacing:normal;text-transform:none;writing-mode:lr-tb;direction:ltr;text-orientation:mixed;dominant-baseline:auto;baseline-shift:baseline;text-anchor:start;white-space:normal;shape-padding:0;shape-margin:0;inline-size:0;clip-rule:nonzero;display:inline;overflow:visible;visibility:visible;isolation:auto;mix-blend-mode:normal;color-interpolation:sRGB;color-interpolation-filters:linearRGB;solid-color:#000000;solid-opacity:1;vector-effect:none;fill:#000000;fill-opacity:1;fill-rule:nonzero;stroke:none;stroke-width:1;stroke-linecap:butt;stroke-linejoin:miter;stroke-miterlimit:4;stroke-dasharray:none;stroke-dashoffset:0;stroke-opacity:1.0;color-rendering:auto;image-rendering:auto;shape-rendering:auto;text-rendering:auto;enable-background:accumulate;stop-color:#000000;stop-opacity:1;" />
  <path
     id="path18"
     d="M 0 -0.5 L 0 0.5 L 0 -0.5 z "
     style="color:#000000;font-style:normal;font-variant:normal;font-weight:normal;font-stretch:normal;font-size:medium;line-height:normal;font-family:sans-serif;font-variant-ligatures:normal;font-variant-position:normal;font-variant-caps:normal;font-variant-numeric:normal;font-variant-alternates:normal;font-variant-east-asian:normal;font-feature-settings:normal;font-variation-settings:normal;text-indent:0;text-align:start;text-decoration:none;text-decoration-line:none;text-decoration-style:solid;text-decoration-color:#000000;letter-spacing:normal;word-spacing:normal;text-transform:none;writing-mode:lr-tb;direction:ltr;text-orientation:mixed;dominant-baseline:auto;baseline-shift:baseline;text-anchor:start;white-space:normal;shape-padding:0;shape-margin:0;inline-size:0;clip-rule:nonzero;display:inline;overflow:visible;visibility:visible;isolation:auto;mix-blend-mode:normal;color-interpolation:sRGB;color-interpolation-filters:linearRGB;solid-color:#000000;solid-opacity:1;vector-effect:none;fill:#000000;fill-opacity:1;fill-rule:nonzero;stroke:none;stroke-width:1;stroke-linecap:butt;stroke-linejoin:miter;stroke-miterlimit:4;stroke-dasharray:none;stroke-dashoffset:0;stroke-opacity:1.0;color-rendering:auto;image-rendering:auto;shape-rendering:auto;text-rendering:auto;enable-background:accumulate;stop-color:#000000;stop-opacity:1;" />
</g>
\n    </svg>
