<?xml version="1.0" encoding="UTF-8"?>
<svg xmlns="http://www.w3.org/2000/svg" xmlns:xlink="http://www.w3.org/1999/xlink" width="25pt" height="25pt" viewBox="0 0 25 25" version="1.1">
<g id="surface1">
<path style=" stroke:none;fill-rule:nonzero;fill:rgb(0%,0%,0%);fill-opacity:1;" d="M 11.425781 2.507812 C 11.078125 2.519531 10.75 2.546875 10.4375 2.59375 C 10.027344 2.652344 9.722656 2.996094 9.714844 3.40625 L 9.667969 5.753906 L 8.152344 3.984375 C 7.890625 3.679688 7.441406 3.59375 7.101562 3.808594 C 6.632812 4.101562 6.105469 4.511719 5.628906 5.015625 C 5.28125 5.382812 5.367188 5.984375 5.789062 6.269531 L 8.722656 8.222656 C 8.992188 8.402344 9.34375 8.414062 9.617188 8.238281 C 10.277344 7.804688 11.070312 7.585938 11.929688 7.617188 C 13.546875 7.679688 15.007812 8.777344 15.511719 10.316406 C 15.914062 11.535156 15.691406 12.679688 15.152344 13.597656 C 14.957031 13.925781 15.003906 14.34375 15.273438 14.613281 L 17.761719 17.101562 C 18.125 17.464844 18.726562 17.417969 19.03125 17.007812 C 20.660156 14.800781 21.351562 11.820312 20.402344 8.777344 C 19.179688 4.863281 15.523438 2.367188 11.425781 2.507812 Z M 13.316406 9.160156 C 13.101562 9.164062 12.894531 9.253906 12.746094 9.410156 L 11.613281 10.539062 C 10.898438 10.191406 10.070312 10 9.167969 10 C 6.320312 10 5 12.386719 5 14.8125 L 5 15.523438 C 6.085938 15.945312 6.636719 16.140625 7.484375 16.453125 C 7.445312 17.035156 7.289062 17.5 6.667969 17.5 C 6.207031 17.5 5.832031 17.875 5.832031 18.332031 C 5.832031 18.792969 6.207031 19.167969 6.667969 19.167969 C 6.667969 20 5.601562 20 5.417969 20 C 4.726562 20 4.167969 20.558594 4.167969 21.25 C 4.167969 21.941406 4.726562 22.5 5.417969 22.5 C 5.449219 22.5 5.484375 22.5 5.519531 22.496094 C 9.171875 22.46875 10 21.144531 10 20 C 10 19.246094 9.167969 18.566406 9.167969 18.332031 L 9.167969 17.082031 C 9.167969 16.394531 9.726562 15.832031 10.417969 15.832031 C 11.105469 15.832031 11.667969 16.394531 11.667969 17.082031 L 11.667969 19.167969 C 11.667969 21.667969 16.894531 21.0625 17.5 21.667969 C 17.5 20.597656 17.285156 19.261719 14.167969 18.332031 L 14.167969 14.59375 C 14.167969 13.386719 13.722656 12.332031 12.972656 11.539062 L 13.921875 10.589844 C 14.167969 10.351562 14.242188 9.984375 14.109375 9.667969 C 13.976562 9.351562 13.660156 9.148438 13.316406 9.160156 Z M 8.332031 13.332031 C 8.832031 13.332031 9.167969 13.667969 9.167969 14.167969 C 9.167969 14.667969 8.832031 15 8.332031 15 C 7.832031 15 7.5 14.667969 7.5 14.167969 C 7.5 13.667969 7.832031 13.332031 8.332031 13.332031 Z M 8.332031 13.332031 "/>
</g>
</svg>
