<?xml version="1.0" encoding="UTF-8"?>
<svg xmlns="http://www.w3.org/2000/svg" xmlns:xlink="http://www.w3.org/1999/xlink" width="25pt" height="25pt" viewBox="0 0 25 25" version="1.1">
<g id="surface1">
<path style=" stroke:none;fill-rule:nonzero;fill:rgb(0%,0%,0%);fill-opacity:1;" d="M 10.035156 3.285156 C 9.621094 3.285156 9.167969 3.4375 8.871094 3.699219 C 8.570312 3.960938 8.417969 4.25 8.261719 4.539062 C 7.949219 5.117188 7.628906 5.804688 6.808594 6.765625 C 6.558594 7.058594 6.304688 7.207031 5.949219 7.398438 C 5.589844 7.59375 5.113281 7.824219 4.675781 8.285156 C 4.671875 8.289062 4.667969 8.296875 4.664062 8.300781 C 4.105469 8.378906 3.527344 8.664062 3.1875 9.082031 C 2.789062 9.546875 2.585938 10.039062 2.402344 10.492188 C 2.046875 11.382812 1.769531 12.292969 1.113281 12.5625 L 1.101562 12.566406 C 0.925781 12.640625 0.824219 12.835938 0.875 13.027344 C 0.929688 13.230469 1.140625 13.355469 1.347656 13.300781 C 1.945312 13.140625 2.382812 12.671875 2.667969 12.242188 C 2.960938 11.804688 3.171875 11.355469 3.390625 10.949219 C 3.46875 10.804688 3.546875 10.671875 3.628906 10.542969 C 3.4375 11.445312 3.332031 12.605469 3.332031 14.167969 C 3.332031 15.226562 2.914062 15.792969 2.578125 16.085938 C 2.539062 16.113281 2.503906 16.140625 2.472656 16.171875 C 2.292969 16.300781 2.15625 16.355469 2.15625 16.355469 C 1.796875 16.519531 1.597656 16.914062 1.6875 17.296875 L 2.519531 21.015625 C 2.605469 21.394531 2.941406 21.667969 3.332031 21.667969 L 4.167969 21.667969 C 4.46875 21.671875 4.746094 21.511719 4.898438 21.253906 C 5.050781 20.992188 5.050781 20.671875 4.898438 20.414062 C 4.746094 20.152344 4.46875 19.996094 4.167969 20 L 4 20 L 3.441406 17.503906 C 4.464844 16.980469 5.203125 16.417969 5.753906 15.890625 C 5.527344 16.257812 5.332031 16.546875 5.332031 16.546875 C 5.15625 16.777344 5.113281 17.082031 5.222656 17.355469 L 6.386719 20.304688 C 6.507812 20.621094 6.808594 20.828125 7.144531 20.832031 L 7.875 20.847656 C 8.335938 20.855469 8.714844 20.488281 8.722656 20.027344 C 8.730469 19.566406 8.367188 19.1875 7.90625 19.179688 L 7.734375 19.175781 L 6.925781 17.128906 C 7.082031 16.902344 7.238281 16.714844 7.519531 16.175781 C 7.804688 15.632812 8.125 14.996094 8.179688 14.292969 C 8.789062 14.351562 9.285156 14.425781 9.617188 14.539062 C 10.011719 14.671875 10.511719 14.824219 11.300781 14.917969 C 11.269531 14.988281 11.246094 15.058594 11.210938 15.128906 C 11.085938 15.402344 10.851562 15.75 10.851562 16.300781 C 10.851562 16.769531 11.023438 17.144531 11.121094 17.339844 C 11.160156 17.421875 11.164062 17.445312 11.167969 17.453125 C 11.066406 18.140625 10.839844 19.894531 10.839844 19.894531 C 10.808594 20.128906 10.882812 20.367188 11.039062 20.546875 C 11.191406 20.726562 11.417969 20.832031 11.65625 20.832031 L 12.695312 20.847656 C 12.996094 20.851562 13.273438 20.695312 13.425781 20.441406 C 13.578125 20.183594 13.582031 19.863281 13.4375 19.605469 C 13.289062 19.34375 13.015625 19.179688 12.714844 19.179688 L 12.617188 19.179688 C 12.703125 18.535156 12.785156 17.882812 12.832031 17.589844 C 12.902344 17.148438 12.75 16.871094 12.65625 16.699219 L 13.445312 15.578125 C 13.453125 15.59375 13.464844 15.605469 13.472656 15.625 C 13.6875 16.066406 13.792969 16.609375 13.890625 16.976562 C 14.050781 17.59375 14.433594 17.902344 14.730469 18.152344 C 14.859375 18.265625 14.878906 18.265625 14.980469 18.339844 L 15.507812 20.996094 C 15.585938 21.382812 15.925781 21.664062 16.320312 21.667969 L 17.699219 21.679688 C 18 21.6875 18.277344 21.53125 18.429688 21.273438 C 18.585938 21.015625 18.585938 20.695312 18.4375 20.433594 C 18.289062 20.171875 18.011719 20.011719 17.714844 20.011719 L 17.011719 20.007812 L 16.554688 17.699219 C 16.515625 17.511719 16.417969 17.34375 16.269531 17.222656 C 16.363281 15.539062 16.6875 15.089844 17.023438 14.824219 C 17.367188 14.550781 18.117188 14.417969 18.871094 13.652344 C 19.320312 13.195312 19.347656 12.738281 19.417969 12.265625 C 19.492188 11.792969 19.53125 11.28125 19.597656 10.785156 C 19.730469 9.796875 20.007812 9.015625 20.402344 8.78125 C 21.203125 8.304688 21.648438 7.90625 21.808594 7.769531 L 22.664062 7.617188 C 22.847656 7.886719 23.078125 8.113281 23.332031 8.113281 C 23.894531 8.117188 24.160156 7.492188 24.160156 7.085938 L 24.160156 6.710938 C 24.160156 6.695312 24.167969 6.679688 24.167969 6.667969 C 24.167969 6.535156 24.199219 6.21875 24.027344 5.816406 C 23.855469 5.414062 23.285156 5 22.726562 5 C 22.382812 5 22.214844 5.0625 21.957031 5.109375 C 21.761719 5.144531 21.597656 5.160156 21.445312 5.171875 C 21.378906 5.109375 21.304688 5.035156 21.183594 4.914062 C 20.871094 4.617188 20.34375 4.167969 19.582031 4.167969 C 18.886719 4.167969 18.351562 4.585938 18.105469 4.882812 C 18.054688 4.941406 18.050781 4.953125 18.015625 5 C 17.84375 4.996094 17.6875 4.996094 17.5 4.996094 C 17.199219 4.992188 16.921875 5.148438 16.769531 5.410156 C 16.617188 5.667969 16.617188 5.988281 16.769531 6.25 C 16.921875 6.507812 17.199219 6.667969 17.5 6.660156 C 17.597656 6.660156 17.683594 6.664062 17.785156 6.664062 C 17.714844 6.851562 17.527344 7.324219 17.117188 7.890625 C 16.613281 8.582031 15.945312 9.167969 15 9.167969 C 14.277344 9.167969 13.878906 8.933594 13.5 8.519531 C 13.121094 8.101562 12.808594 7.464844 12.550781 6.769531 C 12.289062 6.070312 12.082031 5.335938 11.785156 4.6875 C 11.636719 4.363281 11.464844 4.054688 11.191406 3.78125 C 10.917969 3.507812 10.488281 3.285156 10.035156 3.285156 Z M 10.035156 3.285156 "/>
</g>
</svg>
