<?xml version="1.0" encoding="UTF-8"?>
<svg xmlns="http://www.w3.org/2000/svg" xmlns:xlink="http://www.w3.org/1999/xlink" width="25pt" height="25pt" viewBox="0 0 25 25" version="1.1">
<g id="surface1">
<path style=" stroke:none;fill-rule:nonzero;fill:rgb(0%,0%,0%);fill-opacity:1;" d="M 10.441406 0 C 9.796875 0 10.371094 2.847656 10.527344 3.410156 C 9.785156 3.128906 8.785156 1.667969 8.214844 1.667969 C 7.628906 1.667969 8.808594 4.019531 10 5 C 8.894531 4.980469 8.324219 4.199219 7.691406 4.199219 C 7.058594 4.199219 8.578125 6.269531 9.167969 6.667969 L 15.832031 6.667969 C 16.421875 6.269531 17.941406 4.199219 17.308594 4.199219 C 16.675781 4.199219 16.105469 4.980469 15 5 C 16.191406 4.019531 17.371094 1.667969 16.785156 1.667969 C 16.214844 1.667969 15.214844 3.128906 14.472656 3.410156 C 14.628906 2.847656 15.203125 0 14.558594 0 C 14.140625 0 13.914062 1.089844 12.5 2.5 C 11.085938 1.089844 10.859375 0 10.441406 0 Z M 9.167969 8.332031 C 9.167969 8.332031 5.832031 10.851562 5.832031 17.394531 C 5.832031 21.019531 8.816406 23.332031 12.5 23.332031 C 16.183594 23.332031 19.167969 21.019531 19.167969 17.394531 C 19.167969 10.832031 15.832031 8.332031 15.832031 8.332031 Z M 14.167969 11.667969 C 15.289062 11.667969 15.832031 12.5 15.832031 12.5 L 14.230469 13.726562 L 12.5 12.5 C 12.5 12.5 13.042969 11.667969 14.167969 11.667969 Z M 17.410156 14.15625 C 17.890625 14.984375 17.746094 16.511719 17.746094 16.511719 L 15.832031 15 C 15.832031 15 16.511719 14.15625 17.410156 14.15625 Z M 10.832031 14.167969 C 11.957031 14.167969 12.5 15 12.5 15 L 10.898438 16.226562 L 9.167969 15 C 9.167969 15 9.710938 14.167969 10.832031 14.167969 Z M 14.167969 15.832031 C 15.289062 15.832031 15.832031 16.667969 15.832031 16.667969 L 14.230469 17.894531 L 12.5 16.667969 C 12.5 16.667969 13.042969 15.832031 14.167969 15.832031 Z M 10.832031 18.332031 C 11.957031 18.332031 12.5 19.167969 12.5 19.167969 L 10.898438 20.394531 L 9.167969 19.167969 C 9.167969 19.167969 9.710938 18.332031 10.832031 18.332031 Z M 17.5 18.332031 C 17.632812 18.902344 16.660156 20.027344 16.660156 20.027344 L 15.832031 19.167969 C 15.832031 19.167969 16.375 18.332031 17.5 18.332031 Z M 14.167969 20 C 15.289062 20 15.832031 20.832031 15.832031 20.832031 L 15.097656 21.566406 C 14.585938 22.082031 13.75 22.082031 13.234375 21.566406 L 12.5 20.832031 C 12.5 20.832031 13.042969 20 14.167969 20 Z M 14.167969 20 "/>
</g>
</svg>
