<?xml version="1.0" encoding="UTF-8"?>
<svg xmlns="http://www.w3.org/2000/svg" xmlns:xlink="http://www.w3.org/1999/xlink" width="30pt" height="30pt" viewBox="0 0 30 30" version="1.1">
<g id="surface1">
<path style=" stroke:none;fill-rule:nonzero;fill:rgb(0%,0%,0%);fill-opacity:1;" d="M 15 1 C 14.449219 1 14 1.449219 14 2 C 14 2.089844 14.027344 2.167969 14.050781 2.25 C 13.425781 2.589844 13 3.242188 13 4 C 13 4.421875 13.132812 4.8125 13.359375 5.136719 C 8.070312 5.933594 4 10.496094 4 16 C 4 22.0625 8.9375 27 15 27 C 21.0625 27 26 22.0625 26 16 C 26 10.496094 21.929688 5.933594 16.640625 5.136719 C 16.867188 4.8125 17 4.421875 17 4 C 17 3.242188 16.574219 2.589844 15.949219 2.25 C 15.972656 2.167969 16 2.089844 16 2 C 16 1.449219 15.550781 1 15 1 Z M 15 7 C 19.984375 7 24 11.015625 24 16 C 24 20.984375 19.984375 25 15 25 C 10.015625 25 6 20.984375 6 16 C 6 11.015625 10.015625 7 15 7 Z M 14.984375 8.984375 C 14.433594 8.996094 13.992188 9.449219 14 10 L 14 16 C 14 16.265625 14.105469 16.519531 14.292969 16.707031 L 17.292969 19.707031 C 17.542969 19.96875 17.917969 20.074219 18.265625 19.980469 C 18.617188 19.890625 18.890625 19.617188 18.980469 19.265625 C 19.074219 18.917969 18.96875 18.542969 18.707031 18.292969 L 16 15.585938 L 16 10 C 16.003906 9.730469 15.898438 9.46875 15.707031 9.277344 C 15.515625 9.085938 15.253906 8.980469 14.984375 8.984375 Z M 14.984375 8.984375 "/>
</g>
</svg>
