<?xml version="1.0" encoding="UTF-8"?>
<svg xmlns="http://www.w3.org/2000/svg" xmlns:xlink="http://www.w3.org/1999/xlink" width="22pt" height="22pt" viewBox="0 0 22 22" version="1.1">
<g id="surface1">
<path style=" stroke:none;fill-rule:nonzero;fill:rgb(0%,0%,0%);fill-opacity:1;" d="M 11 9.617188 C 10.597656 9.617188 10.328125 10.070312 10.328125 10.988281 C 10.328125 11.910156 10.597656 12.382812 11 12.382812 C 11.402344 12.382812 11.675781 11.910156 11.675781 10.988281 C 11.675781 10.070312 11.402344 9.617188 11 9.617188 Z M 16.925781 5.945312 C 16.558594 5.945312 16.277344 6.222656 16.277344 6.582031 C 16.277344 6.949219 16.558594 7.234375 16.925781 7.234375 C 17.292969 7.234375 17.578125 6.953125 17.578125 6.589844 C 17.578125 6.222656 17.300781 5.945312 16.925781 5.945312 Z M 5.132812 9.617188 C 4.730469 9.617188 4.460938 10.070312 4.460938 10.988281 C 4.460938 11.910156 4.730469 12.382812 5.132812 12.382812 C 5.539062 12.382812 5.808594 11.910156 5.808594 10.988281 C 5.808594 10.070312 5.539062 9.617188 5.132812 9.617188 Z M 5.132812 9.617188 "/>
<path style=" stroke:none;fill-rule:nonzero;fill:rgb(0%,0%,0%);fill-opacity:1;" d="M 19.066406 3.667969 L 2.933594 3.667969 C 2.121094 3.667969 1.464844 4.324219 1.464844 5.132812 L 1.464844 16.867188 C 1.464844 17.675781 2.121094 18.332031 2.933594 18.332031 L 19.066406 18.332031 C 19.878906 18.332031 20.535156 17.675781 20.535156 16.867188 L 20.535156 5.132812 C 20.535156 4.324219 19.878906 3.667969 19.066406 3.667969 Z M 5.132812 13.199219 C 4.046875 13.199219 3.378906 12.371094 3.378906 10.988281 C 3.378906 9.609375 4.054688 8.800781 5.132812 8.800781 C 6.207031 8.800781 6.886719 9.605469 6.886719 10.992188 C 6.886719 12.371094 6.214844 13.199219 5.132812 13.199219 Z M 11 13.199219 C 9.914062 13.199219 9.246094 12.371094 9.246094 10.988281 C 9.246094 9.609375 9.921875 8.800781 11 8.800781 C 12.074219 8.800781 12.753906 9.605469 12.753906 10.992188 C 12.753906 12.371094 12.082031 13.199219 11 13.199219 Z M 18.492188 12.597656 L 16.71875 16.132812 L 15.546875 16.132812 L 17.371094 12.65625 L 17.371094 12.59375 L 15.242188 12.59375 L 15.242188 11.734375 L 18.492188 11.734375 Z M 16.933594 8.042969 C 16.347656 8.042969 15.867188 7.808594 15.570312 7.375 C 15.292969 7.007812 15.144531 6.492188 15.144531 5.882812 C 15.144531 5.609375 15.179688 5.363281 15.234375 5.132812 L 16.214844 5.132812 C 16.15625 5.324219 16.128906 5.542969 16.140625 5.792969 L 16.195312 5.792969 C 16.375 5.40625 16.75 5.191406 17.226562 5.191406 C 18.007812 5.191406 18.589844 5.773438 18.589844 6.558594 C 18.589844 7.429688 17.902344 8.042969 16.933594 8.042969 Z M 16.933594 8.042969 "/>
</g>
</svg>
