<?xml version="1.0" encoding="UTF-8"?>
<svg xmlns="http://www.w3.org/2000/svg" xmlns:xlink="http://www.w3.org/1999/xlink" width="25pt" height="25pt" viewBox="0 0 25 25" version="1.1">
<g id="surface1">
<path style=" stroke:none;fill-rule:nonzero;fill:rgb(0%,0%,0%);fill-opacity:1;" d="M 7.523438 5 C 7.164062 4.988281 6.835938 5.214844 6.714844 5.554688 L 2.179688 18.332031 L 1.667969 18.332031 C 1.367188 18.328125 1.085938 18.488281 0.933594 18.746094 C 0.785156 19.007812 0.785156 19.328125 0.933594 19.585938 C 1.085938 19.847656 1.367188 20.003906 1.667969 20 L 4.167969 20 C 4.46875 20.003906 4.746094 19.847656 4.898438 19.585938 C 5.050781 19.328125 5.050781 19.007812 4.898438 18.746094 C 4.746094 18.488281 4.46875 18.328125 4.167969 18.332031 L 3.949219 18.332031 L 4.835938 15.832031 L 10.164062 15.832031 L 11.050781 18.332031 L 10.832031 18.332031 C 10.53125 18.328125 10.253906 18.488281 10.101562 18.746094 C 9.949219 19.007812 9.949219 19.328125 10.101562 19.585938 C 10.253906 19.847656 10.53125 20.003906 10.832031 20 L 13.332031 20 C 13.632812 20.003906 13.914062 19.847656 14.066406 19.585938 C 14.214844 19.328125 14.214844 19.007812 14.066406 18.746094 C 13.914062 18.488281 13.632812 18.328125 13.332031 18.332031 L 12.820312 18.332031 L 8.285156 5.554688 C 8.171875 5.230469 7.867188 5.011719 7.523438 5 Z M 7.5 8.328125 L 9.570312 14.167969 L 5.429688 14.167969 Z M 19.167969 10 C 19.046875 10 18.929688 10.027344 18.820312 10.078125 C 17.3125 10.214844 16.167969 10.996094 16.167969 10.996094 C 15.800781 11.273438 15.722656 11.796875 15.996094 12.164062 C 16.273438 12.535156 16.796875 12.609375 17.164062 12.335938 C 17.164062 12.335938 18.121094 11.667969 19.167969 11.667969 C 20.046875 11.667969 20.746094 12.328125 20.820312 13.191406 C 20.769531 13.21875 20.695312 13.261719 20.523438 13.308594 C 20.078125 13.4375 19.347656 13.542969 18.578125 13.707031 C 17.808594 13.871094 16.976562 14.089844 16.261719 14.59375 C 15.546875 15.101562 15 15.988281 15 17.082031 C 15 17.933594 15.445312 18.71875 16.128906 19.226562 C 16.808594 19.734375 17.714844 20 18.75 20 C 20.015625 20 20.902344 19.632812 21.492188 19.167969 C 21.949219 19.675781 22.605469 20 23.332031 20 C 23.632812 20.003906 23.914062 19.847656 24.066406 19.585938 C 24.214844 19.328125 24.214844 19.007812 24.066406 18.746094 C 23.914062 18.488281 23.632812 18.328125 23.332031 18.332031 C 22.863281 18.332031 22.5 17.972656 22.5 17.5 C 22.5 17.488281 22.5 17.476562 22.5 17.464844 L 22.5 13.332031 C 22.5 13.273438 22.496094 13.210938 22.480469 13.152344 C 22.382812 11.40625 20.933594 10 19.167969 10 Z M 20.832031 14.945312 L 20.832031 17.402344 C 20.828125 17.4375 20.800781 17.546875 20.601562 17.757812 C 20.363281 18.007812 19.902344 18.332031 18.75 18.332031 C 18.007812 18.332031 17.453125 18.132812 17.121094 17.886719 C 16.789062 17.640625 16.667969 17.382812 16.667969 17.082031 C 16.667969 16.460938 16.847656 16.222656 17.226562 15.957031 C 17.605469 15.6875 18.234375 15.480469 18.921875 15.335938 C 19.558594 15.199219 20.222656 15.105469 20.832031 14.945312 Z M 20.832031 14.945312 "/>
</g>
</svg>
