<?xml version="1.0" encoding="UTF-8" standalone="no"?>
<svg
   xmlns:dc="http://purl.org/dc/elements/1.1/"
   xmlns:cc="http://creativecommons.org/ns#"
   xmlns:rdf="http://www.w3.org/1999/02/22-rdf-syntax-ns#"
   xmlns:svg="http://www.w3.org/2000/svg"
   xmlns="http://www.w3.org/2000/svg"
   xmlns:sodipodi="http://sodipodi.sourceforge.net/DTD/sodipodi-0.dtd"
   xmlns:inkscape="http://www.inkscape.org/namespaces/inkscape"
   inkscape:version="1.0 (4035a4fb49, 2020-05-01)"
   sodipodi:docname="boop-gtk-link-symbolic.svg"
   id="svg8"
   version="1.1"
   viewBox="0 0 22 22"
   height="22pt"
   width="22pt"><metadata
   id="metadata14">
  <rdf:RDF>
    <cc:Work
       rdf:about="">
      <dc:format>image/svg+xml</dc:format>
      <dc:type
         rdf:resource="http://purl.org/dc/dcmitype/StillImage" />
    </cc:Work>
  </rdf:RDF>
</metadata>
<defs
   id="defs12" />
<sodipodi:namedview
   inkscape:current-layer="svg8"
   inkscape:window-maximized="0"
   inkscape:window-y="0"
   inkscape:window-x="0"
   inkscape:cy="14.666667"
   inkscape:cx="14.666667"
   inkscape:zoom="28.909091"
   showgrid="false"
   id="namedview10"
   inkscape:window-height="1052"
   inkscape:window-width="1503"
   inkscape:pageshadow="2"
   inkscape:pageopacity="0"
   guidetolerance="10"
   gridtolerance="10"
   objecttolerance="10"
   borderopacity="1"
   bordercolor="#666666"
   pagecolor="#ffffff" />
<g
   id="surface1">
  <path
     id="path2"
     d="M 10.253906 14.808594 C 10.21875 15.511719 9.941406 16.203125 9.40625 16.742188 L 7.941406 18.207031 C 6.796875 19.351562 4.9375 19.351562 3.792969 18.207031 C 2.648438 17.0625 2.648438 15.203125 3.792969 14.058594 L 5.257812 12.59375 C 5.832031 12.019531 6.582031 11.734375 7.332031 11.734375 C 8.085938 11.734375 8.835938 12.023438 9.40625 12.59375 L 10.445312 11.554688 C 9.613281 10.726562 8.507812 10.265625 7.332031 10.265625 C 6.160156 10.265625 5.054688 10.726562 4.222656 11.554688 L 2.753906 13.023438 C 1.925781 13.851562 1.464844 14.957031 1.464844 16.132812 C 1.464844 17.308594 1.925781 18.414062 2.753906 19.246094 C 3.585938 20.078125 4.691406 20.535156 5.867188 20.535156 C 7.042969 20.535156 8.148438 20.074219 8.976562 19.246094 L 10.445312 17.777344 C 11.273438 16.945312 11.734375 15.839844 11.734375 14.667969 C 11.734375 14.261719 11.675781 13.867188 11.570312 13.488281 Z M 19.246094 2.753906 C 18.414062 1.925781 17.308594 1.464844 16.132812 1.464844 C 14.957031 1.464844 13.851562 1.925781 13.023438 2.753906 L 11.554688 4.222656 C 10.726562 5.054688 10.265625 6.160156 10.265625 7.332031 C 10.265625 8.507812 10.726562 9.613281 11.554688 10.445312 L 12.59375 9.40625 C 11.445312 8.265625 11.445312 6.402344 12.59375 5.257812 L 14.058594 3.792969 C 14.628906 3.21875 15.382812 2.9375 16.132812 2.9375 C 16.882812 2.9375 17.636719 3.222656 18.207031 3.792969 C 19.351562 4.9375 19.351562 6.796875 18.207031 7.941406 L 16.742188 9.40625 C 16.203125 9.941406 15.511719 10.21875 14.808594 10.253906 L 13.488281 11.570312 C 13.867188 11.675781 14.261719 11.734375 14.667969 11.734375 C 15.839844 11.734375 16.945312 11.273438 17.777344 10.445312 L 19.246094 8.976562 C 20.074219 8.148438 20.535156 7.042969 20.535156 5.867188 C 20.535156 4.691406 20.074219 3.585938 19.246094 2.753906 Z M 19.246094 2.753906 "
     style=" stroke:none;fill-rule:nonzero;fill:rgb(0%,0%,0%);fill-opacity:1;" />
  <path
     id="path24"
     d="M 14.667969 6.5996094 A 0.73333353 0.73333353 0 0 0 14.150391 6.8144531 L 6.8144531 14.150391 A 0.73333353 0.73333353 0 0 0 6.8144531 15.185547 A 0.73333353 0.73333353 0 0 0 7.8496094 15.185547 L 15.185547 7.8496094 A 0.73333353 0.73333353 0 0 0 15.185547 6.8144531 A 0.73333353 0.73333353 0 0 0 14.667969 6.5996094 z "
     style="color:#000000;font-style:normal;font-variant:normal;font-weight:normal;font-stretch:normal;font-size:medium;line-height:normal;font-family:sans-serif;font-variant-ligatures:normal;font-variant-position:normal;font-variant-caps:normal;font-variant-numeric:normal;font-variant-alternates:normal;font-variant-east-asian:normal;font-feature-settings:normal;font-variation-settings:normal;text-indent:0;text-align:start;text-decoration:none;text-decoration-line:none;text-decoration-style:solid;text-decoration-color:#000000;letter-spacing:normal;word-spacing:normal;text-transform:none;writing-mode:lr-tb;direction:ltr;text-orientation:mixed;dominant-baseline:auto;baseline-shift:baseline;text-anchor:start;white-space:normal;shape-padding:0;shape-margin:0;inline-size:0;clip-rule:nonzero;display:inline;overflow:visible;visibility:visible;isolation:auto;mix-blend-mode:normal;color-interpolation:sRGB;color-interpolation-filters:linearRGB;solid-color:#000000;solid-opacity:1;vector-effect:none;fill:#000000;fill-opacity:1;fill-rule:nonzero;stroke:none;stroke-width:1.46667;stroke-linecap:round;stroke-linejoin:miter;stroke-miterlimit:10;stroke-dasharray:none;stroke-dashoffset:0;stroke-opacity:1;color-rendering:auto;image-rendering:auto;shape-rendering:auto;text-rendering:auto;enable-background:accumulate;stop-color:#000000;stop-opacity:1;opacity:1" />
</g>
<g
   style="opacity:1"
   id="g16">
  <path
     id="path18"
     d="M 0,0 V 0"
     style="color:#000000;font-style:normal;font-variant:normal;font-weight:normal;font-stretch:normal;font-size:medium;line-height:normal;font-family:sans-serif;font-variant-ligatures:normal;font-variant-position:normal;font-variant-caps:normal;font-variant-numeric:normal;font-variant-alternates:normal;font-variant-east-asian:normal;font-feature-settings:normal;font-variation-settings:normal;text-indent:0;text-align:start;text-decoration:none;text-decoration-line:none;text-decoration-style:solid;text-decoration-color:#000000;letter-spacing:normal;word-spacing:normal;text-transform:none;writing-mode:lr-tb;direction:ltr;text-orientation:mixed;dominant-baseline:auto;baseline-shift:baseline;text-anchor:start;white-space:normal;shape-padding:0;shape-margin:0;inline-size:0;clip-rule:nonzero;display:inline;overflow:visible;visibility:visible;isolation:auto;mix-blend-mode:normal;color-interpolation:sRGB;color-interpolation-filters:linearRGB;solid-color:#000000;solid-opacity:1;vector-effect:none;fill:#000000;fill-opacity:1;fill-rule:nonzero;stroke:none;stroke-width:1;stroke-linecap:butt;stroke-linejoin:miter;stroke-miterlimit:4;stroke-dasharray:none;stroke-dashoffset:0;stroke-opacity:1.0;color-rendering:auto;image-rendering:auto;shape-rendering:auto;text-rendering:auto;enable-background:accumulate;stop-color:#000000;stop-opacity:1;" />
  <path
     id="path20"
     d="M 0 -0.5 L 0 0.5 L 0 -0.5 z "
     style="color:#000000;font-style:normal;font-variant:normal;font-weight:normal;font-stretch:normal;font-size:medium;line-height:normal;font-family:sans-serif;font-variant-ligatures:normal;font-variant-position:normal;font-variant-caps:normal;font-variant-numeric:normal;font-variant-alternates:normal;font-variant-east-asian:normal;font-feature-settings:normal;font-variation-settings:normal;text-indent:0;text-align:start;text-decoration:none;text-decoration-line:none;text-decoration-style:solid;text-decoration-color:#000000;letter-spacing:normal;word-spacing:normal;text-transform:none;writing-mode:lr-tb;direction:ltr;text-orientation:mixed;dominant-baseline:auto;baseline-shift:baseline;text-anchor:start;white-space:normal;shape-padding:0;shape-margin:0;inline-size:0;clip-rule:nonzero;display:inline;overflow:visible;visibility:visible;isolation:auto;mix-blend-mode:normal;color-interpolation:sRGB;color-interpolation-filters:linearRGB;solid-color:#000000;solid-opacity:1;vector-effect:none;fill:#000000;fill-opacity:1;fill-rule:nonzero;stroke:none;stroke-width:1;stroke-linecap:butt;stroke-linejoin:miter;stroke-miterlimit:4;stroke-dasharray:none;stroke-dashoffset:0;stroke-opacity:1.0;color-rendering:auto;image-rendering:auto;shape-rendering:auto;text-rendering:auto;enable-background:accumulate;stop-color:#000000;stop-opacity:1;" />
</g>
\n    </svg>
