<?xml version="1.0" encoding="UTF-8"?>
<svg xmlns="http://www.w3.org/2000/svg" xmlns:xlink="http://www.w3.org/1999/xlink" width="25pt" height="25pt" viewBox="0 0 25 25" version="1.1">
<g id="surface1">
<path style=" stroke:none;fill-rule:nonzero;fill:rgb(0%,0%,0%);fill-opacity:1;" d="M 18.320312 3.320312 C 17.859375 3.328125 17.492188 3.707031 17.5 4.167969 L 17.5 18.820312 L 15.589844 16.910156 C 15.433594 16.75 15.21875 16.660156 14.992188 16.660156 C 14.652344 16.660156 14.347656 16.863281 14.21875 17.179688 C 14.09375 17.492188 14.167969 17.851562 14.410156 18.089844 L 17.671875 21.347656 C 17.828125 21.554688 18.074219 21.675781 18.335938 21.675781 C 18.59375 21.675781 18.839844 21.554688 18.996094 21.347656 L 22.253906 18.089844 C 22.472656 17.878906 22.5625 17.570312 22.484375 17.277344 C 22.410156 16.984375 22.179688 16.757812 21.890625 16.679688 C 21.597656 16.605469 21.285156 16.691406 21.078125 16.910156 L 19.167969 18.820312 L 19.167969 4.167969 C 19.167969 3.941406 19.082031 3.722656 18.921875 3.566406 C 18.761719 3.40625 18.546875 3.320312 18.320312 3.320312 Z M 5.488281 3.332031 L 2.972656 10.832031 L 4.863281 10.832031 L 5.351562 9.1875 L 7.796875 9.1875 L 8.265625 10.832031 L 10.34375 10.832031 L 7.824219 3.332031 Z M 6.535156 5.023438 L 6.632812 5.023438 L 7.4375 7.8125 L 5.714844 7.8125 Z M 3.765625 14.167969 L 3.765625 15.699219 L 7.226562 15.699219 L 7.226562 15.800781 L 3.710938 20.457031 L 3.710938 21.667969 L 9.625 21.667969 L 9.625 20.132812 L 5.996094 20.132812 L 5.996094 20.035156 L 9.515625 15.378906 L 9.515625 14.167969 Z M 3.765625 14.167969 "/>
</g>
</svg>
