<?xml version="1.0" encoding="UTF-8"?>
<svg xmlns="http://www.w3.org/2000/svg" xmlns:xlink="http://www.w3.org/1999/xlink" width="25pt" height="25pt" viewBox="0 0 25 25" version="1.1">
<g id="surface1">
<path style=" stroke:none;fill-rule:nonzero;fill:rgb(0%,0%,0%);fill-opacity:1;" d="M 11.667969 2.542969 C 9.53125 2.71875 7.589844 3.5625 6.046875 4.867188 L 9.011719 7.832031 C 9.777344 7.261719 10.679688 6.875 11.667969 6.734375 Z M 13.332031 2.542969 L 13.332031 6.734375 C 14.320312 6.875 15.222656 7.261719 15.988281 7.835938 L 18.953125 4.867188 C 17.410156 3.5625 15.46875 2.71875 13.332031 2.542969 Z M 4.867188 6.046875 C 3.5625 7.589844 2.71875 9.53125 2.542969 11.667969 L 6.734375 11.667969 C 6.875 10.679688 7.261719 9.773438 7.835938 9.011719 Z M 20.132812 6.046875 L 17.164062 9.011719 C 17.738281 9.773438 18.125 10.679688 18.265625 11.667969 L 22.457031 11.667969 C 22.28125 9.53125 21.4375 7.589844 20.132812 6.046875 Z M 12.5 8.332031 C 10.199219 8.332031 8.332031 10.199219 8.332031 12.5 C 8.332031 14.800781 10.199219 16.667969 12.5 16.667969 C 14.800781 16.667969 16.667969 14.800781 16.667969 12.5 C 16.667969 10.199219 14.800781 8.332031 12.5 8.332031 Z M 2.542969 13.332031 C 2.71875 15.46875 3.5625 17.410156 4.867188 18.953125 L 7.835938 15.988281 C 7.261719 15.226562 6.875 14.320312 6.734375 13.332031 Z M 18.265625 13.332031 C 18.125 14.320312 17.738281 15.226562 17.164062 15.988281 L 20.132812 18.953125 C 21.4375 17.410156 22.28125 15.46875 22.457031 13.332031 Z M 9.011719 17.164062 L 6.046875 20.132812 C 7.589844 21.4375 9.53125 22.28125 11.667969 22.457031 L 11.667969 18.265625 C 10.679688 18.125 9.777344 17.738281 9.011719 17.164062 Z M 15.988281 17.167969 C 15.222656 17.738281 14.320312 18.125 13.332031 18.265625 L 13.332031 22.457031 C 15.46875 22.28125 17.410156 21.4375 18.953125 20.132812 Z M 15.988281 17.167969 "/>
</g>
</svg>
