<?xml version="1.0" encoding="UTF-8"?>
<svg xmlns="http://www.w3.org/2000/svg" xmlns:xlink="http://www.w3.org/1999/xlink" width="25pt" height="25pt" viewBox="0 0 25 25" version="1.1">
<g id="surface1">
<path style=" stroke:none;fill-rule:nonzero;fill:rgb(0%,0%,0%);fill-opacity:1;" d="M 15.929688 9.609375 L 15 8.332031 C 15 8.332031 14.648438 8.332031 14.167969 8.332031 L 14.167969 10 L 10.832031 10 L 10.832031 8.332031 C 10.832031 7.679688 11.21875 7.113281 11.773438 6.839844 C 11.085938 5.640625 10.078125 4.167969 9.519531 4.167969 C 4.59375 4.167969 2.5 7.578125 2.5 7.578125 L 2.5 20 L 4.167969 20 L 4.167969 19.167969 C 4.167969 18.707031 4.542969 18.332031 5 18.332031 C 5.457031 18.332031 5.832031 18.707031 5.832031 19.167969 L 5.832031 20 L 7.5 20 L 7.5 18.332031 C 7.5 17.875 7.875 17.5 8.332031 17.5 C 8.792969 17.5 9.167969 17.875 9.167969 18.332031 L 9.167969 20 L 10.832031 20 L 10.832031 18.332031 C 10.832031 17.417969 11.582031 16.667969 12.5 16.667969 C 13.417969 16.667969 14.167969 17.417969 14.167969 18.332031 L 14.167969 20 L 15.832031 20 L 15.832031 18.332031 C 15.832031 17.875 16.207031 17.5 16.667969 17.5 C 17.125 17.5 17.5 17.875 17.5 18.332031 L 17.5 20 L 19.167969 20 L 19.167969 19.167969 C 19.167969 18.707031 19.542969 18.332031 20 18.332031 C 20.457031 18.332031 20.832031 18.707031 20.832031 19.167969 L 20.832031 20 L 22.5 20 C 22.5 20 22.5 14.398438 22.5 13.710938 C 22.5 13.710938 21.351562 9.609375 15.929688 9.609375 Z M 5.832031 15 L 4.167969 15 L 4.167969 14.167969 C 4.167969 13.707031 4.542969 13.332031 5 13.332031 C 5.457031 13.332031 5.832031 13.707031 5.832031 14.167969 Z M 5.832031 10 L 4.167969 10 L 4.167969 9.167969 C 4.167969 8.707031 4.542969 8.332031 5 8.332031 C 5.457031 8.332031 5.832031 8.707031 5.832031 9.167969 Z M 9.0625 15 L 7.394531 15 L 7.394531 13.332031 C 7.394531 12.875 7.769531 12.5 8.226562 12.5 C 8.6875 12.5 9.0625 12.875 9.0625 13.332031 Z M 9.167969 10 L 7.5 10 L 7.5 8.332031 C 7.5 7.875 7.875 7.5 8.332031 7.5 C 8.792969 7.5 9.167969 7.875 9.167969 8.332031 Z M 14.167969 15 L 10.832031 15 L 10.832031 13.332031 C 10.832031 12.417969 11.582031 11.667969 12.5 11.667969 C 13.417969 11.667969 14.167969 12.417969 14.167969 13.332031 Z M 17.394531 15 L 15.726562 15 L 15.726562 13.332031 C 15.726562 12.875 16.101562 12.5 16.5625 12.5 C 17.019531 12.5 17.394531 12.875 17.394531 13.332031 Z M 20.832031 15 L 19.167969 15 L 19.167969 14.167969 C 19.167969 13.707031 19.542969 13.332031 20 13.332031 C 20.457031 13.332031 20.832031 13.707031 20.832031 14.167969 Z M 20.832031 15 "/>
</g>
</svg>
