<?xml version="1.0" encoding="UTF-8"?>
<svg xmlns="http://www.w3.org/2000/svg" xmlns:xlink="http://www.w3.org/1999/xlink" width="25pt" height="25pt" viewBox="0 0 25 25" version="1.1">
<g id="surface1">
<path style=" stroke:none;fill-rule:nonzero;fill:rgb(0%,0%,0%);fill-opacity:1;" d="M 12.664062 1.667969 C 12.550781 1.675781 12.4375 1.714844 12.332031 1.792969 L 11 2.792969 C 10.371094 3.265625 10 4.007812 10 4.792969 L 10 10 L 13.332031 10 L 13.332031 2.292969 C 13.332031 1.90625 13 1.644531 12.664062 1.667969 Z M 20.832031 3.332031 C 20.375 3.332031 20 3.707031 20 4.167969 C 20 4.625 20.375 5 20.832031 5 C 21.292969 5 21.667969 4.625 21.667969 4.167969 C 21.667969 3.707031 21.292969 3.332031 20.832031 3.332031 Z M 18.332031 5.832031 C 17.875 5.832031 17.5 6.207031 17.5 6.667969 C 17.5 7.125 17.875 7.5 18.332031 7.5 C 18.792969 7.5 19.167969 7.125 19.167969 6.667969 C 19.167969 6.207031 18.792969 5.832031 18.332031 5.832031 Z M 15.832031 8.332031 C 15.375 8.332031 15 8.707031 15 9.167969 C 15 9.625 15.375 10 15.832031 10 C 16.292969 10 16.667969 9.625 16.667969 9.167969 C 16.667969 8.707031 16.292969 8.332031 15.832031 8.332031 Z M 5 10 C 3.191406 10 1.667969 11.523438 1.667969 13.332031 C 1.667969 15.140625 3.191406 16.667969 5 16.667969 C 6.203125 16.667969 7.269531 15.984375 7.855469 15 L 10 15 L 10 17.144531 C 9.015625 17.730469 8.332031 18.796875 8.332031 20 C 8.332031 21.808594 9.859375 23.332031 11.667969 23.332031 C 13.476562 23.332031 15 21.808594 15 20 C 15 18.796875 14.316406 17.730469 13.332031 17.144531 L 13.332031 15 L 20.207031 15 C 20.992188 15 21.734375 14.628906 22.207031 14 L 23.207031 12.667969 C 23.515625 12.253906 23.222656 11.667969 22.707031 11.667969 L 7.855469 11.667969 C 7.269531 10.683594 6.203125 10 5 10 Z M 5 11.667969 C 5.890625 11.667969 6.667969 12.445312 6.667969 13.332031 C 6.667969 14.222656 5.890625 15 5 15 C 4.109375 15 3.332031 14.222656 3.332031 13.332031 C 3.332031 12.445312 4.109375 11.667969 5 11.667969 Z M 11.667969 12.5 C 12.125 12.5 12.5 12.875 12.5 13.332031 C 12.5 13.792969 12.125 14.167969 11.667969 14.167969 C 11.207031 14.167969 10.832031 13.792969 10.832031 13.332031 C 10.832031 12.875 11.207031 12.5 11.667969 12.5 Z M 11.667969 18.332031 C 12.554688 18.332031 13.332031 19.109375 13.332031 20 C 13.332031 20.890625 12.554688 21.667969 11.667969 21.667969 C 10.777344 21.667969 10 20.890625 10 20 C 10 19.109375 10.777344 18.332031 11.667969 18.332031 Z M 11.667969 18.332031 "/>
</g>
</svg>
