<?xml version="1.0" encoding="UTF-8" standalone="no"?>
<svg
   xmlns:dc="http://purl.org/dc/elements/1.1/"
   xmlns:cc="http://creativecommons.org/ns#"
   xmlns:rdf="http://www.w3.org/1999/02/22-rdf-syntax-ns#"
   xmlns:svg="http://www.w3.org/2000/svg"
   xmlns="http://www.w3.org/2000/svg"
   xmlns:sodipodi="http://sodipodi.sourceforge.net/DTD/sodipodi-0.dtd"
   xmlns:inkscape="http://www.inkscape.org/namespaces/inkscape"
   inkscape:version="1.0 (4035a4fb49, 2020-05-01)"
   sodipodi:docname="boop-gtk-table-symbolic.svg"
   id="svg6"
   version="1.1"
   viewBox="0 0 25 25"
   height="25pt"
   width="25pt"><metadata
   id="metadata12">
  <rdf:RDF>
    <cc:Work
       rdf:about="">
      <dc:format>image/svg+xml</dc:format>
      <dc:type
         rdf:resource="http://purl.org/dc/dcmitype/StillImage" />
    </cc:Work>
  </rdf:RDF>
</metadata>
<defs
   id="defs10" />
<sodipodi:namedview
   inkscape:current-layer="svg6"
   inkscape:window-maximized="0"
   inkscape:window-y="0"
   inkscape:window-x="0"
   inkscape:cy="16.666667"
   inkscape:cx="16.666667"
   inkscape:zoom="25.44"
   showgrid="false"
   id="namedview8"
   inkscape:window-height="1052"
   inkscape:window-width="1503"
   inkscape:pageshadow="2"
   inkscape:pageopacity="0"
   guidetolerance="10"
   gridtolerance="10"
   objecttolerance="10"
   borderopacity="1"
   bordercolor="#666666"
   pagecolor="#ffffff" />
<g
   id="surface1">
  <path
     id="path2"
     d="M 3.332031 1.667969 C 2.421875 1.667969 1.667969 2.421875 1.667969 3.332031 L 1.667969 8.332031 C 1.667969 9.246094 2.421875 10 3.332031 10 L 21.667969 10 C 22.578125 10 23.332031 9.246094 23.332031 8.332031 L 23.332031 3.332031 C 23.332031 2.421875 22.578125 1.667969 21.667969 1.667969 Z M 3.332031 3.332031 L 21.667969 3.332031 L 21.667969 8.332031 L 3.332031 8.332031 Z M 2.5 11.667969 C 2.039062 11.667969 1.667969 12.039062 1.667969 12.5 C 1.667969 12.960938 2.039062 13.332031 2.5 13.332031 C 2.960938 13.332031 3.332031 12.960938 3.332031 12.5 C 3.332031 12.039062 2.960938 11.667969 2.5 11.667969 Z M 12.5 11.667969 C 12.039062 11.667969 11.667969 12.039062 11.667969 12.5 C 11.667969 12.960938 12.039062 13.332031 12.5 13.332031 C 12.960938 13.332031 13.332031 12.960938 13.332031 12.5 C 13.332031 12.039062 12.960938 11.667969 12.5 11.667969 Z M 22.5 11.667969 C 22.039062 11.667969 21.667969 12.039062 21.667969 12.5 C 21.667969 12.960938 22.039062 13.332031 22.5 13.332031 C 22.960938 13.332031 23.332031 12.960938 23.332031 12.5 C 23.332031 12.039062 22.960938 11.667969 22.5 11.667969 Z M 2.5 15 C 2.039062 15 1.667969 15.375 1.667969 15.832031 C 1.667969 16.292969 2.039062 16.667969 2.5 16.667969 C 2.960938 16.667969 3.332031 16.292969 3.332031 15.832031 C 3.332031 15.375 2.960938 15 2.5 15 Z M 5.832031 15 C 5.375 15 5 15.375 5 15.832031 C 5 16.292969 5.375 16.667969 5.832031 16.667969 C 6.292969 16.667969 6.667969 16.292969 6.667969 15.832031 C 6.667969 15.375 6.292969 15 5.832031 15 Z M 9.167969 15 C 8.707031 15 8.332031 15.375 8.332031 15.832031 C 8.332031 16.292969 8.707031 16.667969 9.167969 16.667969 C 9.625 16.667969 10 16.292969 10 15.832031 C 10 15.375 9.625 15 9.167969 15 Z M 12.5 15 C 12.039062 15 11.667969 15.375 11.667969 15.832031 C 11.667969 16.292969 12.039062 16.667969 12.5 16.667969 C 12.960938 16.667969 13.332031 16.292969 13.332031 15.832031 C 13.332031 15.375 12.960938 15 12.5 15 Z M 15.832031 15 C 15.375 15 15 15.375 15 15.832031 C 15 16.292969 15.375 16.667969 15.832031 16.667969 C 16.292969 16.667969 16.667969 16.292969 16.667969 15.832031 C 16.667969 15.375 16.292969 15 15.832031 15 Z M 19.167969 15 C 18.707031 15 18.332031 15.375 18.332031 15.832031 C 18.332031 16.292969 18.707031 16.667969 19.167969 16.667969 C 19.625 16.667969 20 16.292969 20 15.832031 C 20 15.375 19.625 15 19.167969 15 Z M 22.5 15 C 22.039062 15 21.667969 15.375 21.667969 15.832031 C 21.667969 16.292969 22.039062 16.667969 22.5 16.667969 C 22.960938 16.667969 23.332031 16.292969 23.332031 15.832031 C 23.332031 15.375 22.960938 15 22.5 15 Z M 2.5 18.332031 C 2.039062 18.332031 1.667969 18.707031 1.667969 19.167969 C 1.667969 19.625 2.039062 20 2.5 20 C 2.960938 20 3.332031 19.625 3.332031 19.167969 C 3.332031 18.707031 2.960938 18.332031 2.5 18.332031 Z M 12.5 18.332031 C 12.039062 18.332031 11.667969 18.707031 11.667969 19.167969 C 11.667969 19.625 12.039062 20 12.5 20 C 12.960938 20 13.332031 19.625 13.332031 19.167969 C 13.332031 18.707031 12.960938 18.332031 12.5 18.332031 Z M 22.5 18.332031 C 22.039062 18.332031 21.667969 18.707031 21.667969 19.167969 C 21.667969 19.625 22.039062 20 22.5 20 C 22.960938 20 23.332031 19.625 23.332031 19.167969 C 23.332031 18.707031 22.960938 18.332031 22.5 18.332031 Z M 2.5 21.667969 C 2.039062 21.667969 1.667969 22.039062 1.667969 22.5 C 1.667969 22.960938 2.039062 23.332031 2.5 23.332031 C 2.960938 23.332031 3.332031 22.960938 3.332031 22.5 C 3.332031 22.039062 2.960938 21.667969 2.5 21.667969 Z M 5.832031 21.667969 C 5.375 21.667969 5 22.039062 5 22.5 C 5 22.960938 5.375 23.332031 5.832031 23.332031 C 6.292969 23.332031 6.667969 22.960938 6.667969 22.5 C 6.667969 22.039062 6.292969 21.667969 5.832031 21.667969 Z M 9.167969 21.667969 C 8.707031 21.667969 8.332031 22.039062 8.332031 22.5 C 8.332031 22.960938 8.707031 23.332031 9.167969 23.332031 C 9.625 23.332031 10 22.960938 10 22.5 C 10 22.039062 9.625 21.667969 9.167969 21.667969 Z M 12.5 21.667969 C 12.039062 21.667969 11.667969 22.039062 11.667969 22.5 C 11.667969 22.960938 12.039062 23.332031 12.5 23.332031 C 12.960938 23.332031 13.332031 22.960938 13.332031 22.5 C 13.332031 22.039062 12.960938 21.667969 12.5 21.667969 Z M 15.832031 21.667969 C 15.375 21.667969 15 22.039062 15 22.5 C 15 22.960938 15.375 23.332031 15.832031 23.332031 C 16.292969 23.332031 16.667969 22.960938 16.667969 22.5 C 16.667969 22.039062 16.292969 21.667969 15.832031 21.667969 Z M 19.167969 21.667969 C 18.707031 21.667969 18.332031 22.039062 18.332031 22.5 C 18.332031 22.960938 18.707031 23.332031 19.167969 23.332031 C 19.625 23.332031 20 22.960938 20 22.5 C 20 22.039062 19.625 21.667969 19.167969 21.667969 Z M 22.5 21.667969 C 22.039062 21.667969 21.667969 22.039062 21.667969 22.5 C 21.667969 22.960938 22.039062 23.332031 22.5 23.332031 C 22.960938 23.332031 23.332031 22.960938 23.332031 22.5 C 23.332031 22.039062 22.960938 21.667969 22.5 21.667969 Z M 22.5 21.667969 "
     style=" stroke:none;fill-rule:nonzero;fill:rgb(0%,0%,0%);fill-opacity:1;" />
</g>
<g
   style="opacity:1"
   id="g14">
  <path
     id="path16"
     d="M 0,0 V 0"
     style="color:#000000;font-style:normal;font-variant:normal;font-weight:normal;font-stretch:normal;font-size:medium;line-height:normal;font-family:sans-serif;font-variant-ligatures:normal;font-variant-position:normal;font-variant-caps:normal;font-variant-numeric:normal;font-variant-alternates:normal;font-variant-east-asian:normal;font-feature-settings:normal;font-variation-settings:normal;text-indent:0;text-align:start;text-decoration:none;text-decoration-line:none;text-decoration-style:solid;text-decoration-color:#000000;letter-spacing:normal;word-spacing:normal;text-transform:none;writing-mode:lr-tb;direction:ltr;text-orientation:mixed;dominant-baseline:auto;baseline-shift:baseline;text-anchor:start;white-space:normal;shape-padding:0;shape-margin:0;inline-size:0;clip-rule:nonzero;display:inline;overflow:visible;visibility:visible;isolation:auto;mix-blend-mode:normal;color-interpolation:sRGB;color-interpolation-filters:linearRGB;solid-color:#000000;solid-opacity:1;vector-effect:none;fill:#000000;fill-opacity:1;fill-rule:nonzero;stroke:none;stroke-width:1;stroke-linecap:butt;stroke-linejoin:miter;stroke-miterlimit:4;stroke-dasharray:none;stroke-dashoffset:0;stroke-opacity:1.0;color-rendering:auto;image-rendering:auto;shape-rendering:auto;text-rendering:auto;enable-background:accumulate;stop-color:#000000;stop-opacity:1;" />
  <path
     id="path18"
     d="M 0 -0.5 L 0 0.5 L 0 -0.5 z "
     style="color:#000000;font-style:normal;font-variant:normal;font-weight:normal;font-stretch:normal;font-size:medium;line-height:normal;font-family:sans-serif;font-variant-ligatures:normal;font-variant-position:normal;font-variant-caps:normal;font-variant-numeric:normal;font-variant-alternates:normal;font-variant-east-asian:normal;font-feature-settings:normal;font-variation-settings:normal;text-indent:0;text-align:start;text-decoration:none;text-decoration-line:none;text-decoration-style:solid;text-decoration-color:#000000;letter-spacing:normal;word-spacing:normal;text-transform:none;writing-mode:lr-tb;direction:ltr;text-orientation:mixed;dominant-baseline:auto;baseline-shift:baseline;text-anchor:start;white-space:normal;shape-padding:0;shape-margin:0;inline-size:0;clip-rule:nonzero;display:inline;overflow:visible;visibility:visible;isolation:auto;mix-blend-mode:normal;color-interpolation:sRGB;color-interpolation-filters:linearRGB;solid-color:#000000;solid-opacity:1;vector-effect:none;fill:#000000;fill-opacity:1;fill-rule:nonzero;stroke:none;stroke-width:1;stroke-linecap:butt;stroke-linejoin:miter;stroke-miterlimit:4;stroke-dasharray:none;stroke-dashoffset:0;stroke-opacity:1.0;color-rendering:auto;image-rendering:auto;shape-rendering:auto;text-rendering:auto;enable-background:accumulate;stop-color:#000000;stop-opacity:1;" />
</g>
\n    </svg>
