<?xml version="1.0" encoding="UTF-8"?>
<svg xmlns="http://www.w3.org/2000/svg" xmlns:xlink="http://www.w3.org/1999/xlink" width="25pt" height="25pt" viewBox="0 0 25 25" version="1.1">
<g id="surface1">
<path style=" stroke:none;fill-rule:nonzero;fill:rgb(0%,0%,0%);fill-opacity:1;" d="M 22.484375 1.660156 C 22.265625 1.664062 22.0625 1.753906 21.910156 1.910156 L 19.914062 3.90625 L 17.941406 1.933594 C 17.632812 1.625 17.152344 1.578125 16.792969 1.820312 L 14.5625 3.332031 C 14.09375 3.648438 14.027344 4.316406 14.429688 4.714844 L 20.28125 10.566406 C 20.683594 10.96875 21.351562 10.90625 21.667969 10.4375 L 23.175781 8.207031 C 23.421875 7.847656 23.375 7.367188 23.066406 7.058594 L 21.09375 5.085938 L 23.089844 3.089844 C 23.335938 2.851562 23.410156 2.484375 23.277344 2.167969 C 23.140625 1.851562 22.828125 1.648438 22.484375 1.660156 Z M 12.863281 6.664062 C 12.460938 6.675781 12.128906 6.96875 12.066406 7.363281 C 12 7.757812 12.226562 8.144531 12.601562 8.28125 C 12.601562 8.28125 13.917969 8.78125 15.066406 9.933594 C 16.21875 11.082031 16.71875 12.398438 16.71875 12.398438 C 16.816406 12.6875 17.0625 12.90625 17.363281 12.960938 C 17.664062 13.015625 17.972656 12.898438 18.164062 12.660156 C 18.355469 12.421875 18.398438 12.09375 18.28125 11.8125 C 18.28125 11.8125 17.675781 10.183594 16.246094 8.75 C 14.816406 7.320312 13.1875 6.71875 13.1875 6.71875 C 13.082031 6.679688 12.972656 6.660156 12.863281 6.664062 Z M 9.902344 9.152344 C 9.699219 9.132812 9.488281 9.183594 9.308594 9.304688 L 7.082031 10.8125 C 6.609375 11.132812 6.546875 11.800781 6.949219 12.199219 L 12.796875 18.050781 C 13.199219 18.453125 13.867188 18.390625 14.1875 17.917969 L 15.691406 15.6875 C 15.9375 15.332031 15.890625 14.851562 15.585938 14.542969 L 13.609375 12.566406 L 14.027344 12.152344 C 14.273438 11.914062 14.347656 11.546875 14.214844 11.230469 C 14.078125 10.914062 13.765625 10.710938 13.421875 10.722656 C 13.203125 10.726562 13 10.816406 12.847656 10.972656 L 12.433594 11.390625 L 10.457031 9.414062 C 10.304688 9.261719 10.105469 9.171875 9.902344 9.152344 Z M 5.363281 14.164062 C 4.960938 14.175781 4.628906 14.46875 4.566406 14.863281 C 4.5 15.257812 4.726562 15.644531 5.101562 15.78125 C 5.101562 15.78125 5.988281 16.125 6.941406 16.882812 L 5.597656 18.226562 C 5.054688 18.765625 4.894531 19.578125 5.253906 20.292969 L 5.234375 20.25 C 5.382812 20.59375 5.332031 21.070312 5.042969 21.359375 C 4.601562 21.800781 4.082031 21.800781 3.640625 21.359375 C 3.199219 20.917969 3.199219 20.398438 3.640625 19.957031 C 3.859375 19.75 3.945312 19.4375 3.871094 19.144531 C 3.792969 18.855469 3.566406 18.625 3.273438 18.550781 C 2.980469 18.472656 2.671875 18.5625 2.460938 18.777344 C 1.429688 19.8125 1.429688 21.507812 2.460938 22.539062 C 3.492188 23.570312 5.1875 23.570312 6.222656 22.539062 C 7.035156 21.722656 7.171875 20.539062 6.765625 19.59375 L 6.757812 19.570312 L 6.746094 19.546875 C 6.734375 19.527344 6.757812 19.417969 6.773438 19.40625 L 8.121094 18.058594 C 8.875 19.011719 9.21875 19.898438 9.21875 19.898438 C 9.316406 20.1875 9.5625 20.40625 9.863281 20.460938 C 10.164062 20.515625 10.472656 20.398438 10.664062 20.160156 C 10.855469 19.921875 10.898438 19.59375 10.78125 19.3125 C 10.78125 19.3125 10.175781 17.683594 8.746094 16.25 C 7.316406 14.820312 5.6875 14.21875 5.6875 14.21875 C 5.582031 14.179688 5.472656 14.160156 5.363281 14.164062 Z M 5.363281 14.164062 "/>
</g>
</svg>
