<?xml version="1.0" encoding="UTF-8"?>
<svg xmlns="http://www.w3.org/2000/svg" xmlns:xlink="http://www.w3.org/1999/xlink" width="22pt" height="22pt" viewBox="0 0 22 22" version="1.1">
<g id="surface1">
<path style=" stroke:none;fill-rule:nonzero;fill:rgb(0%,0%,0%);fill-opacity:1;" d="M 2.933594 5.132812 C 2.53125 5.132812 2.199219 5.460938 2.199219 5.867188 C 2.199219 6.269531 2.53125 6.601562 2.933594 6.601562 C 3.335938 6.601562 3.667969 6.269531 3.667969 5.867188 C 3.667969 5.460938 3.335938 5.132812 2.933594 5.132812 Z M 4.398438 7.332031 C 3.589844 7.332031 2.933594 7.988281 2.933594 8.800781 C 2.933594 9.609375 3.589844 10.265625 4.398438 10.265625 C 5.210938 10.265625 5.867188 9.609375 5.867188 8.800781 C 5.867188 7.988281 5.210938 7.332031 4.398438 7.332031 Z M 16.886719 9.96875 L 14.054688 8.363281 L 18.160156 2.582031 C 18.429688 2.203125 18.941406 2.089844 19.339844 2.316406 C 19.746094 2.542969 19.910156 3.039062 19.726562 3.464844 Z M 16.886719 9.96875 "/>
<path style=" stroke:none;fill-rule:nonzero;fill:rgb(0%,0%,0%);fill-opacity:1;" d="M 18.175781 8.910156 L 14.042969 6.601562 C 13.410156 6.25 12.625 6.382812 12.144531 6.921875 L 11.285156 7.894531 L 18.5 11.972656 L 18.890625 10.703125 C 19.105469 10.011719 18.808594 9.265625 18.175781 8.910156 Z M 14.191406 19.800781 L 11.40625 18.511719 C 11.40625 18.511719 13.195312 16.65625 13.703125 15.535156 C 11.101562 17.09375 9.007812 17.191406 9.007812 17.191406 L 7.054688 15.992188 C 7.054688 15.992188 7.535156 15.730469 8.308594 15.207031 C 7.492188 15.375 5.796875 15.195312 5.796875 15.195312 L 2.199219 13.023438 C 2.199219 13.023438 6.648438 12.878906 10.273438 9.183594 L 18.035156 13.558594 C 16.484375 18.136719 14.191406 19.800781 14.191406 19.800781 Z M 14.191406 19.800781 "/>
</g>
</svg>
