<?xml version="1.0" encoding="UTF-8" standalone="no"?>
<svg
   xmlns:dc="http://purl.org/dc/elements/1.1/"
   xmlns:cc="http://creativecommons.org/ns#"
   xmlns:rdf="http://www.w3.org/1999/02/22-rdf-syntax-ns#"
   xmlns:svg="http://www.w3.org/2000/svg"
   xmlns="http://www.w3.org/2000/svg"
   xmlns:sodipodi="http://sodipodi.sourceforge.net/DTD/sodipodi-0.dtd"
   xmlns:inkscape="http://www.inkscape.org/namespaces/inkscape"
   inkscape:version="1.0 (4035a4fb49, 2020-05-01)"
   sodipodi:docname="boop-gtk-counter-symbolic.svg"
   id="svg8"
   version="1.1"
   viewBox="0 0 22 22"
   height="22pt"
   width="22pt"><metadata
   id="metadata14">
  <rdf:RDF>
    <cc:Work
       rdf:about="">
      <dc:format>image/svg+xml</dc:format>
      <dc:type
         rdf:resource="http://purl.org/dc/dcmitype/StillImage" />
    </cc:Work>
  </rdf:RDF>
</metadata>
<defs
   id="defs12" />
<sodipodi:namedview
   inkscape:current-layer="svg8"
   inkscape:window-maximized="0"
   inkscape:window-y="0"
   inkscape:window-x="0"
   inkscape:cy="14.666667"
   inkscape:cx="14.666667"
   inkscape:zoom="28.909091"
   showgrid="false"
   id="namedview10"
   inkscape:window-height="1052"
   inkscape:window-width="1503"
   inkscape:pageshadow="2"
   inkscape:pageopacity="0"
   guidetolerance="10"
   gridtolerance="10"
   objecttolerance="10"
   borderopacity="1"
   bordercolor="#666666"
   pagecolor="#ffffff" />
<g
   id="surface1">
  <path
     id="path2"
     d="M 11 9.617188 C 10.597656 9.617188 10.328125 10.070312 10.328125 10.988281 C 10.328125 11.910156 10.597656 12.382812 11 12.382812 C 11.402344 12.382812 11.675781 11.910156 11.675781 10.988281 C 11.675781 10.070312 11.402344 9.617188 11 9.617188 Z M 16.925781 5.945312 C 16.558594 5.945312 16.277344 6.222656 16.277344 6.582031 C 16.277344 6.949219 16.558594 7.234375 16.925781 7.234375 C 17.292969 7.234375 17.578125 6.953125 17.578125 6.589844 C 17.578125 6.222656 17.300781 5.945312 16.925781 5.945312 Z M 5.132812 9.617188 C 4.730469 9.617188 4.460938 10.070312 4.460938 10.988281 C 4.460938 11.910156 4.730469 12.382812 5.132812 12.382812 C 5.539062 12.382812 5.808594 11.910156 5.808594 10.988281 C 5.808594 10.070312 5.539062 9.617188 5.132812 9.617188 Z M 5.132812 9.617188 "
     style=" stroke:none;fill-rule:nonzero;fill:rgb(0%,0%,0%);fill-opacity:1;" />
  <path
     id="path4"
     d="M 19.066406 3.667969 L 2.933594 3.667969 C 2.121094 3.667969 1.464844 4.324219 1.464844 5.132812 L 1.464844 16.867188 C 1.464844 17.675781 2.121094 18.332031 2.933594 18.332031 L 19.066406 18.332031 C 19.878906 18.332031 20.535156 17.675781 20.535156 16.867188 L 20.535156 5.132812 C 20.535156 4.324219 19.878906 3.667969 19.066406 3.667969 Z M 5.132812 13.199219 C 4.046875 13.199219 3.378906 12.371094 3.378906 10.988281 C 3.378906 9.609375 4.054688 8.800781 5.132812 8.800781 C 6.207031 8.800781 6.886719 9.605469 6.886719 10.992188 C 6.886719 12.371094 6.214844 13.199219 5.132812 13.199219 Z M 11 13.199219 C 9.914062 13.199219 9.246094 12.371094 9.246094 10.988281 C 9.246094 9.609375 9.921875 8.800781 11 8.800781 C 12.074219 8.800781 12.753906 9.605469 12.753906 10.992188 C 12.753906 12.371094 12.082031 13.199219 11 13.199219 Z M 18.492188 12.597656 L 16.71875 16.132812 L 15.546875 16.132812 L 17.371094 12.65625 L 17.371094 12.59375 L 15.242188 12.59375 L 15.242188 11.734375 L 18.492188 11.734375 Z M 16.933594 8.042969 C 16.347656 8.042969 15.867188 7.808594 15.570312 7.375 C 15.292969 7.007812 15.144531 6.492188 15.144531 5.882812 C 15.144531 5.609375 15.179688 5.363281 15.234375 5.132812 L 16.214844 5.132812 C 16.15625 5.324219 16.128906 5.542969 16.140625 5.792969 L 16.195312 5.792969 C 16.375 5.40625 16.75 5.191406 17.226562 5.191406 C 18.007812 5.191406 18.589844 5.773438 18.589844 6.558594 C 18.589844 7.429688 17.902344 8.042969 16.933594 8.042969 Z M 16.933594 8.042969 "
     style=" stroke:none;fill-rule:nonzero;fill:rgb(0%,0%,0%);fill-opacity:1;" />
</g>
<g
   style="opacity:1"
   id="g16">
  <path
     id="path18"
     d="M 0,0 V 0"
     style="color:#000000;font-style:normal;font-variant:normal;font-weight:normal;font-stretch:normal;font-size:medium;line-height:normal;font-family:sans-serif;font-variant-ligatures:normal;font-variant-position:normal;font-variant-caps:normal;font-variant-numeric:normal;font-variant-alternates:normal;font-variant-east-asian:normal;font-feature-settings:normal;font-variation-settings:normal;text-indent:0;text-align:start;text-decoration:none;text-decoration-line:none;text-decoration-style:solid;text-decoration-color:#000000;letter-spacing:normal;word-spacing:normal;text-transform:none;writing-mode:lr-tb;direction:ltr;text-orientation:mixed;dominant-baseline:auto;baseline-shift:baseline;text-anchor:start;white-space:normal;shape-padding:0;shape-margin:0;inline-size:0;clip-rule:nonzero;display:inline;overflow:visible;visibility:visible;isolation:auto;mix-blend-mode:normal;color-interpolation:sRGB;color-interpolation-filters:linearRGB;solid-color:#000000;solid-opacity:1;vector-effect:none;fill:#000000;fill-opacity:1;fill-rule:nonzero;stroke:none;stroke-width:1;stroke-linecap:butt;stroke-linejoin:miter;stroke-miterlimit:4;stroke-dasharray:none;stroke-dashoffset:0;stroke-opacity:1.0;color-rendering:auto;image-rendering:auto;shape-rendering:auto;text-rendering:auto;enable-background:accumulate;stop-color:#000000;stop-opacity:1;" />
  <path
     id="path20"
     d="M 0 -0.5 L 0 0.5 L 0 -0.5 z "
     style="color:#000000;font-style:normal;font-variant:normal;font-weight:normal;font-stretch:normal;font-size:medium;line-height:normal;font-family:sans-serif;font-variant-ligatures:normal;font-variant-position:normal;font-variant-caps:normal;font-variant-numeric:normal;font-variant-alternates:normal;font-variant-east-asian:normal;font-feature-settings:normal;font-variation-settings:normal;text-indent:0;text-align:start;text-decoration:none;text-decoration-line:none;text-decoration-style:solid;text-decoration-color:#000000;letter-spacing:normal;word-spacing:normal;text-transform:none;writing-mode:lr-tb;direction:ltr;text-orientation:mixed;dominant-baseline:auto;baseline-shift:baseline;text-anchor:start;white-space:normal;shape-padding:0;shape-margin:0;inline-size:0;clip-rule:nonzero;display:inline;overflow:visible;visibility:visible;isolation:auto;mix-blend-mode:normal;color-interpolation:sRGB;color-interpolation-filters:linearRGB;solid-color:#000000;solid-opacity:1;vector-effect:none;fill:#000000;fill-opacity:1;fill-rule:nonzero;stroke:none;stroke-width:1;stroke-linecap:butt;stroke-linejoin:miter;stroke-miterlimit:4;stroke-dasharray:none;stroke-dashoffset:0;stroke-opacity:1.0;color-rendering:auto;image-rendering:auto;shape-rendering:auto;text-rendering:auto;enable-background:accumulate;stop-color:#000000;stop-opacity:1;" />
</g>
\n    </svg>
