<?xml version="1.0" encoding="UTF-8" standalone="no"?>
<svg
   xmlns:dc="http://purl.org/dc/elements/1.1/"
   xmlns:cc="http://creativecommons.org/ns#"
   xmlns:rdf="http://www.w3.org/1999/02/22-rdf-syntax-ns#"
   xmlns:svg="http://www.w3.org/2000/svg"
   xmlns="http://www.w3.org/2000/svg"
   xmlns:sodipodi="http://sodipodi.sourceforge.net/DTD/sodipodi-0.dtd"
   xmlns:inkscape="http://www.inkscape.org/namespaces/inkscape"
   inkscape:version="1.0 (4035a4fb49, 2020-05-01)"
   sodipodi:docname="boop-gtk-dice-symbolic.svg"
   id="svg6"
   version="1.1"
   viewBox="0 0 25 25"
   height="25pt"
   width="25pt"><metadata
   id="metadata12">
  <rdf:RDF>
    <cc:Work
       rdf:about="">
      <dc:format>image/svg+xml</dc:format>
      <dc:type
         rdf:resource="http://purl.org/dc/dcmitype/StillImage" />
    </cc:Work>
  </rdf:RDF>
</metadata>
<defs
   id="defs10" />
<sodipodi:namedview
   inkscape:current-layer="svg6"
   inkscape:window-maximized="0"
   inkscape:window-y="0"
   inkscape:window-x="0"
   inkscape:cy="16.666667"
   inkscape:cx="16.666667"
   inkscape:zoom="25.44"
   showgrid="false"
   id="namedview8"
   inkscape:window-height="1052"
   inkscape:window-width="1503"
   inkscape:pageshadow="2"
   inkscape:pageopacity="0"
   guidetolerance="10"
   gridtolerance="10"
   objecttolerance="10"
   borderopacity="1"
   bordercolor="#666666"
   pagecolor="#ffffff" />
<g
   id="surface1">
  <path
     id="path2"
     d="M 12.5 2.5 C 12.1875 2.5 11.878906 2.558594 11.582031 2.675781 L 4.5625 5.4375 C 4.058594 5.632812 4.046875 6.347656 4.546875 6.558594 L 12.007812 9.71875 C 12.164062 9.785156 12.332031 9.820312 12.5 9.820312 C 12.667969 9.820312 12.835938 9.785156 12.992188 9.71875 L 20.453125 6.558594 C 20.953125 6.347656 20.941406 5.632812 20.4375 5.4375 L 13.417969 2.675781 C 13.121094 2.558594 12.8125 2.5 12.5 2.5 Z M 12.5 5 C 13.421875 5 14.167969 5.375 14.167969 5.832031 C 14.167969 6.292969 13.421875 6.667969 12.5 6.667969 C 11.578125 6.667969 10.832031 6.292969 10.832031 5.832031 C 10.832031 5.375 11.578125 5 12.5 5 Z M 3.238281 7.925781 C 2.839844 7.96875 2.5 8.300781 2.5 8.746094 L 2.5 17.117188 C 2.5 18.074219 3.035156 18.933594 3.890625 19.355469 C 3.890625 19.355469 7.75 21.257812 10.03125 22.375 C 10.789062 22.746094 11.667969 22.191406 11.667969 21.351562 L 11.667969 12.542969 C 11.667969 11.839844 11.246094 11.207031 10.601562 10.933594 L 3.644531 7.988281 C 3.507812 7.929688 3.371094 7.910156 3.238281 7.925781 Z M 21.761719 7.925781 C 21.628906 7.910156 21.492188 7.929688 21.355469 7.988281 L 14.398438 10.933594 C 13.753906 11.207031 13.332031 11.839844 13.332031 12.542969 L 13.332031 21.351562 C 13.332031 22.195312 14.210938 22.746094 14.96875 22.375 C 17.25 21.257812 21.109375 19.359375 21.109375 19.359375 C 21.964844 18.933594 22.5 18.074219 22.5 17.117188 L 22.5 8.746094 C 22.5 8.300781 22.160156 7.96875 21.761719 7.925781 Z M 4.832031 10.238281 C 4.886719 10.238281 4.941406 10.25 5 10.265625 C 5.460938 10.410156 5.832031 11.089844 5.832031 11.777344 C 5.832031 12.46875 5.460938 12.910156 5 12.765625 C 4.539062 12.621094 4.167969 11.945312 4.167969 11.253906 C 4.167969 10.652344 4.453125 10.234375 4.832031 10.238281 Z M 20.167969 10.539062 C 20.546875 10.535156 20.832031 10.949219 20.832031 11.554688 C 20.832031 12.246094 20.460938 12.921875 20 13.066406 C 19.539062 13.210938 19.167969 12.769531 19.167969 12.078125 C 19.167969 11.386719 19.539062 10.710938 20 10.566406 C 20.058594 10.546875 20.113281 10.539062 20.167969 10.539062 Z M 16.835938 11.90625 C 17.214844 11.902344 17.5 12.316406 17.5 12.921875 C 17.5 13.613281 17.125 14.289062 16.667969 14.433594 C 16.207031 14.578125 15.832031 14.136719 15.832031 13.445312 C 15.832031 12.753906 16.207031 12.078125 16.667969 11.933594 C 16.722656 11.914062 16.78125 11.90625 16.835938 11.90625 Z M 20.167969 15.238281 C 20.546875 15.238281 20.832031 15.652344 20.832031 16.253906 C 20.832031 16.945312 20.460938 17.621094 20 17.765625 C 19.539062 17.910156 19.167969 17.46875 19.167969 16.777344 C 19.167969 16.089844 19.539062 15.410156 20 15.265625 C 20.058594 15.25 20.113281 15.238281 20.167969 15.238281 Z M 8.164062 16.90625 C 8.21875 16.90625 8.277344 16.914062 8.332031 16.933594 C 8.792969 17.078125 9.167969 17.753906 9.167969 18.445312 C 9.167969 19.136719 8.792969 19.578125 8.332031 19.433594 C 7.875 19.289062 7.5 18.613281 7.5 17.921875 C 7.5 17.316406 7.785156 16.902344 8.164062 16.90625 Z M 16.835938 16.90625 C 17.214844 16.902344 17.5 17.316406 17.5 17.921875 C 17.5 18.613281 17.125 19.289062 16.667969 19.433594 C 16.207031 19.578125 15.832031 19.136719 15.832031 18.445312 C 15.832031 17.753906 16.207031 17.078125 16.667969 16.933594 C 16.722656 16.914062 16.78125 16.90625 16.835938 16.90625 Z M 16.835938 16.90625 "
     style=" stroke:none;fill-rule:nonzero;fill:rgb(0%,0%,0%);fill-opacity:1;" />
</g>
<g
   style="opacity:1"
   id="g14">
  <path
     id="path16"
     d="M 0,0 V 0"
     style="color:#000000;font-style:normal;font-variant:normal;font-weight:normal;font-stretch:normal;font-size:medium;line-height:normal;font-family:sans-serif;font-variant-ligatures:normal;font-variant-position:normal;font-variant-caps:normal;font-variant-numeric:normal;font-variant-alternates:normal;font-variant-east-asian:normal;font-feature-settings:normal;font-variation-settings:normal;text-indent:0;text-align:start;text-decoration:none;text-decoration-line:none;text-decoration-style:solid;text-decoration-color:#000000;letter-spacing:normal;word-spacing:normal;text-transform:none;writing-mode:lr-tb;direction:ltr;text-orientation:mixed;dominant-baseline:auto;baseline-shift:baseline;text-anchor:start;white-space:normal;shape-padding:0;shape-margin:0;inline-size:0;clip-rule:nonzero;display:inline;overflow:visible;visibility:visible;isolation:auto;mix-blend-mode:normal;color-interpolation:sRGB;color-interpolation-filters:linearRGB;solid-color:#000000;solid-opacity:1;vector-effect:none;fill:#000000;fill-opacity:1;fill-rule:nonzero;stroke:none;stroke-width:1;stroke-linecap:butt;stroke-linejoin:miter;stroke-miterlimit:4;stroke-dasharray:none;stroke-dashoffset:0;stroke-opacity:1.0;color-rendering:auto;image-rendering:auto;shape-rendering:auto;text-rendering:auto;enable-background:accumulate;stop-color:#000000;stop-opacity:1;" />
  <path
     id="path18"
     d="M 0 -0.5 L 0 0.5 L 0 -0.5 z "
     style="color:#000000;font-style:normal;font-variant:normal;font-weight:normal;font-stretch:normal;font-size:medium;line-height:normal;font-family:sans-serif;font-variant-ligatures:normal;font-variant-position:normal;font-variant-caps:normal;font-variant-numeric:normal;font-variant-alternates:normal;font-variant-east-asian:normal;font-feature-settings:normal;font-variation-settings:normal;text-indent:0;text-align:start;text-decoration:none;text-decoration-line:none;text-decoration-style:solid;text-decoration-color:#000000;letter-spacing:normal;word-spacing:normal;text-transform:none;writing-mode:lr-tb;direction:ltr;text-orientation:mixed;dominant-baseline:auto;baseline-shift:baseline;text-anchor:start;white-space:normal;shape-padding:0;shape-margin:0;inline-size:0;clip-rule:nonzero;display:inline;overflow:visible;visibility:visible;isolation:auto;mix-blend-mode:normal;color-interpolation:sRGB;color-interpolation-filters:linearRGB;solid-color:#000000;solid-opacity:1;vector-effect:none;fill:#000000;fill-opacity:1;fill-rule:nonzero;stroke:none;stroke-width:1;stroke-linecap:butt;stroke-linejoin:miter;stroke-miterlimit:4;stroke-dasharray:none;stroke-dashoffset:0;stroke-opacity:1.0;color-rendering:auto;image-rendering:auto;shape-rendering:auto;text-rendering:auto;enable-background:accumulate;stop-color:#000000;stop-opacity:1;" />
</g>
\n    </svg>
