<?xml version="1.0" encoding="UTF-8" standalone="no"?>
<svg
   xmlns:dc="http://purl.org/dc/elements/1.1/"
   xmlns:cc="http://creativecommons.org/ns#"
   xmlns:rdf="http://www.w3.org/1999/02/22-rdf-syntax-ns#"
   xmlns:svg="http://www.w3.org/2000/svg"
   xmlns="http://www.w3.org/2000/svg"
   xmlns:sodipodi="http://sodipodi.sourceforge.net/DTD/sodipodi-0.dtd"
   xmlns:inkscape="http://www.inkscape.org/namespaces/inkscape"
   inkscape:version="1.0 (4035a4fb49, 2020-05-01)"
   sodipodi:docname="boop-gtk-scissors-symbolic.svg"
   id="svg6"
   version="1.1"
   viewBox="0 0 25 25"
   height="25pt"
   width="25pt"><metadata
   id="metadata12">
  <rdf:RDF>
    <cc:Work
       rdf:about="">
      <dc:format>image/svg+xml</dc:format>
      <dc:type
         rdf:resource="http://purl.org/dc/dcmitype/StillImage" />
    </cc:Work>
  </rdf:RDF>
</metadata>
<defs
   id="defs10" />
<sodipodi:namedview
   inkscape:current-layer="svg6"
   inkscape:window-maximized="0"
   inkscape:window-y="0"
   inkscape:window-x="0"
   inkscape:cy="16.666667"
   inkscape:cx="16.666667"
   inkscape:zoom="25.44"
   showgrid="false"
   id="namedview8"
   inkscape:window-height="1052"
   inkscape:window-width="1503"
   inkscape:pageshadow="2"
   inkscape:pageopacity="0"
   guidetolerance="10"
   gridtolerance="10"
   objecttolerance="10"
   borderopacity="1"
   bordercolor="#666666"
   pagecolor="#ffffff" />
<g
   id="surface1">
  <path
     id="path2"
     d="M 12.664062 1.667969 C 12.550781 1.675781 12.4375 1.714844 12.332031 1.792969 L 11 2.792969 C 10.371094 3.265625 10 4.007812 10 4.792969 L 10 10 L 13.332031 10 L 13.332031 2.292969 C 13.332031 1.90625 13 1.644531 12.664062 1.667969 Z M 20.832031 3.332031 C 20.375 3.332031 20 3.707031 20 4.167969 C 20 4.625 20.375 5 20.832031 5 C 21.292969 5 21.667969 4.625 21.667969 4.167969 C 21.667969 3.707031 21.292969 3.332031 20.832031 3.332031 Z M 18.332031 5.832031 C 17.875 5.832031 17.5 6.207031 17.5 6.667969 C 17.5 7.125 17.875 7.5 18.332031 7.5 C 18.792969 7.5 19.167969 7.125 19.167969 6.667969 C 19.167969 6.207031 18.792969 5.832031 18.332031 5.832031 Z M 15.832031 8.332031 C 15.375 8.332031 15 8.707031 15 9.167969 C 15 9.625 15.375 10 15.832031 10 C 16.292969 10 16.667969 9.625 16.667969 9.167969 C 16.667969 8.707031 16.292969 8.332031 15.832031 8.332031 Z M 5 10 C 3.191406 10 1.667969 11.523438 1.667969 13.332031 C 1.667969 15.140625 3.191406 16.667969 5 16.667969 C 6.203125 16.667969 7.269531 15.984375 7.855469 15 L 10 15 L 10 17.144531 C 9.015625 17.730469 8.332031 18.796875 8.332031 20 C 8.332031 21.808594 9.859375 23.332031 11.667969 23.332031 C 13.476562 23.332031 15 21.808594 15 20 C 15 18.796875 14.316406 17.730469 13.332031 17.144531 L 13.332031 15 L 20.207031 15 C 20.992188 15 21.734375 14.628906 22.207031 14 L 23.207031 12.667969 C 23.515625 12.253906 23.222656 11.667969 22.707031 11.667969 L 7.855469 11.667969 C 7.269531 10.683594 6.203125 10 5 10 Z M 5 11.667969 C 5.890625 11.667969 6.667969 12.445312 6.667969 13.332031 C 6.667969 14.222656 5.890625 15 5 15 C 4.109375 15 3.332031 14.222656 3.332031 13.332031 C 3.332031 12.445312 4.109375 11.667969 5 11.667969 Z M 11.667969 12.5 C 12.125 12.5 12.5 12.875 12.5 13.332031 C 12.5 13.792969 12.125 14.167969 11.667969 14.167969 C 11.207031 14.167969 10.832031 13.792969 10.832031 13.332031 C 10.832031 12.875 11.207031 12.5 11.667969 12.5 Z M 11.667969 18.332031 C 12.554688 18.332031 13.332031 19.109375 13.332031 20 C 13.332031 20.890625 12.554688 21.667969 11.667969 21.667969 C 10.777344 21.667969 10 20.890625 10 20 C 10 19.109375 10.777344 18.332031 11.667969 18.332031 Z M 11.667969 18.332031 "
     style=" stroke:none;fill-rule:nonzero;fill:rgb(0%,0%,0%);fill-opacity:1;" />
</g>
<g
   style="opacity:1"
   id="g14">
  <path
     id="path16"
     d="M 0,0 V 0"
     style="color:#000000;font-style:normal;font-variant:normal;font-weight:normal;font-stretch:normal;font-size:medium;line-height:normal;font-family:sans-serif;font-variant-ligatures:normal;font-variant-position:normal;font-variant-caps:normal;font-variant-numeric:normal;font-variant-alternates:normal;font-variant-east-asian:normal;font-feature-settings:normal;font-variation-settings:normal;text-indent:0;text-align:start;text-decoration:none;text-decoration-line:none;text-decoration-style:solid;text-decoration-color:#000000;letter-spacing:normal;word-spacing:normal;text-transform:none;writing-mode:lr-tb;direction:ltr;text-orientation:mixed;dominant-baseline:auto;baseline-shift:baseline;text-anchor:start;white-space:normal;shape-padding:0;shape-margin:0;inline-size:0;clip-rule:nonzero;display:inline;overflow:visible;visibility:visible;isolation:auto;mix-blend-mode:normal;color-interpolation:sRGB;color-interpolation-filters:linearRGB;solid-color:#000000;solid-opacity:1;vector-effect:none;fill:#000000;fill-opacity:1;fill-rule:nonzero;stroke:none;stroke-width:1;stroke-linecap:butt;stroke-linejoin:miter;stroke-miterlimit:4;stroke-dasharray:none;stroke-dashoffset:0;stroke-opacity:1.0;color-rendering:auto;image-rendering:auto;shape-rendering:auto;text-rendering:auto;enable-background:accumulate;stop-color:#000000;stop-opacity:1;" />
  <path
     id="path18"
     d="M 0 -0.5 L 0 0.5 L 0 -0.5 z "
     style="color:#000000;font-style:normal;font-variant:normal;font-weight:normal;font-stretch:normal;font-size:medium;line-height:normal;font-family:sans-serif;font-variant-ligatures:normal;font-variant-position:normal;font-variant-caps:normal;font-variant-numeric:normal;font-variant-alternates:normal;font-variant-east-asian:normal;font-feature-settings:normal;font-variation-settings:normal;text-indent:0;text-align:start;text-decoration:none;text-decoration-line:none;text-decoration-style:solid;text-decoration-color:#000000;letter-spacing:normal;word-spacing:normal;text-transform:none;writing-mode:lr-tb;direction:ltr;text-orientation:mixed;dominant-baseline:auto;baseline-shift:baseline;text-anchor:start;white-space:normal;shape-padding:0;shape-margin:0;inline-size:0;clip-rule:nonzero;display:inline;overflow:visible;visibility:visible;isolation:auto;mix-blend-mode:normal;color-interpolation:sRGB;color-interpolation-filters:linearRGB;solid-color:#000000;solid-opacity:1;vector-effect:none;fill:#000000;fill-opacity:1;fill-rule:nonzero;stroke:none;stroke-width:1;stroke-linecap:butt;stroke-linejoin:miter;stroke-miterlimit:4;stroke-dasharray:none;stroke-dashoffset:0;stroke-opacity:1.0;color-rendering:auto;image-rendering:auto;shape-rendering:auto;text-rendering:auto;enable-background:accumulate;stop-color:#000000;stop-opacity:1;" />
</g>
\n    </svg>
