<?xml version="1.0" encoding="UTF-8" standalone="no"?>
<svg
   xmlns:dc="http://purl.org/dc/elements/1.1/"
   xmlns:cc="http://creativecommons.org/ns#"
   xmlns:rdf="http://www.w3.org/1999/02/22-rdf-syntax-ns#"
   xmlns:svg="http://www.w3.org/2000/svg"
   xmlns="http://www.w3.org/2000/svg"
   xmlns:sodipodi="http://sodipodi.sourceforge.net/DTD/sodipodi-0.dtd"
   xmlns:inkscape="http://www.inkscape.org/namespaces/inkscape"
   inkscape:version="1.0 (4035a4fb49, 2020-05-01)"
   sodipodi:docname="boop-gtk-identification-symbolic.svg"
   id="svg6"
   version="1.1"
   viewBox="0 0 25 25"
   height="25pt"
   width="25pt"><metadata
   id="metadata12">
  <rdf:RDF>
    <cc:Work
       rdf:about="">
      <dc:format>image/svg+xml</dc:format>
      <dc:type
         rdf:resource="http://purl.org/dc/dcmitype/StillImage" />
    </cc:Work>
  </rdf:RDF>
</metadata>
<defs
   id="defs10" />
<sodipodi:namedview
   inkscape:current-layer="svg6"
   inkscape:window-maximized="0"
   inkscape:window-y="0"
   inkscape:window-x="0"
   inkscape:cy="16.666667"
   inkscape:cx="16.666667"
   inkscape:zoom="25.44"
   showgrid="false"
   id="namedview8"
   inkscape:window-height="1052"
   inkscape:window-width="1503"
   inkscape:pageshadow="2"
   inkscape:pageopacity="0"
   guidetolerance="10"
   gridtolerance="10"
   objecttolerance="10"
   borderopacity="1"
   bordercolor="#666666"
   pagecolor="#ffffff" />
<g
   id="surface1">
  <path
     id="path2"
     d="M 11.667969 1.667969 C 10.746094 1.667969 10 2.414062 10 3.332031 L 10 5 L 15 5 L 15 3.332031 C 15 2.414062 14.253906 1.667969 13.332031 1.667969 Z M 15 5 L 15 5.832031 C 15 6.753906 14.253906 7.5 13.332031 7.5 L 11.667969 7.5 C 10.746094 7.5 10 6.753906 10 5.832031 L 10 5 L 3.332031 5 C 2.414062 5 1.667969 5.746094 1.667969 6.667969 L 1.667969 20 C 1.667969 20.921875 2.414062 21.667969 3.332031 21.667969 L 21.667969 21.667969 C 22.585938 21.667969 23.332031 20.921875 23.332031 20 L 23.332031 6.667969 C 23.332031 5.746094 22.585938 5 21.667969 5 Z M 8.332031 9.167969 C 9.128906 9.167969 9.375 9.730469 9.375 9.730469 C 10.085938 9.730469 10.417969 10.507812 10.417969 11.421875 C 10.417969 11.878906 10.234375 12.253906 10.234375 12.253906 C 10.304688 12.300781 10.429688 12.449219 10.398438 12.707031 C 10.34375 13.1875 10.148438 13.3125 10.027344 13.320312 C 9.980469 13.773438 9.535156 14.347656 9.375 14.433594 L 9.375 15.183594 C 9.6875 16.199219 11.210938 15.703125 11.667969 17.5 L 5 17.5 C 5.457031 15.703125 6.980469 16.199219 7.292969 15.183594 L 7.292969 14.433594 C 7.136719 14.347656 6.6875 13.773438 6.640625 13.320312 C 6.519531 13.3125 6.328125 13.1875 6.269531 12.707031 C 6.238281 12.449219 6.359375 12.300781 6.433594 12.253906 C 6.433594 12.253906 6.25 11.839844 6.25 11.421875 C 6.25 10.1875 6.859375 9.167969 8.332031 9.167969 Z M 14.167969 12.5 L 19.167969 12.5 C 19.625 12.5 20 12.875 20 13.332031 C 20 13.792969 19.625 14.167969 19.167969 14.167969 L 14.167969 14.167969 C 13.707031 14.167969 13.332031 13.792969 13.332031 13.332031 C 13.332031 12.875 13.707031 12.5 14.167969 12.5 Z M 14.167969 15.832031 L 19.167969 15.832031 C 19.625 15.832031 20 16.207031 20 16.667969 C 20 17.125 19.625 17.5 19.167969 17.5 L 14.167969 17.5 C 13.707031 17.5 13.332031 17.125 13.332031 16.667969 C 13.332031 16.207031 13.707031 15.832031 14.167969 15.832031 Z M 14.167969 15.832031 "
     style=" stroke:none;fill-rule:nonzero;fill:rgb(0%,0%,0%);fill-opacity:1;" />
</g>
<g
   style="opacity:1"
   id="g14">
  <path
     id="path16"
     d="M 0,0 V 0"
     style="color:#000000;font-style:normal;font-variant:normal;font-weight:normal;font-stretch:normal;font-size:medium;line-height:normal;font-family:sans-serif;font-variant-ligatures:normal;font-variant-position:normal;font-variant-caps:normal;font-variant-numeric:normal;font-variant-alternates:normal;font-variant-east-asian:normal;font-feature-settings:normal;font-variation-settings:normal;text-indent:0;text-align:start;text-decoration:none;text-decoration-line:none;text-decoration-style:solid;text-decoration-color:#000000;letter-spacing:normal;word-spacing:normal;text-transform:none;writing-mode:lr-tb;direction:ltr;text-orientation:mixed;dominant-baseline:auto;baseline-shift:baseline;text-anchor:start;white-space:normal;shape-padding:0;shape-margin:0;inline-size:0;clip-rule:nonzero;display:inline;overflow:visible;visibility:visible;isolation:auto;mix-blend-mode:normal;color-interpolation:sRGB;color-interpolation-filters:linearRGB;solid-color:#000000;solid-opacity:1;vector-effect:none;fill:#000000;fill-opacity:1;fill-rule:nonzero;stroke:none;stroke-width:1;stroke-linecap:butt;stroke-linejoin:miter;stroke-miterlimit:4;stroke-dasharray:none;stroke-dashoffset:0;stroke-opacity:1.0;color-rendering:auto;image-rendering:auto;shape-rendering:auto;text-rendering:auto;enable-background:accumulate;stop-color:#000000;stop-opacity:1;" />
  <path
     id="path18"
     d="M 0 -0.5 L 0 0.5 L 0 -0.5 z "
     style="color:#000000;font-style:normal;font-variant:normal;font-weight:normal;font-stretch:normal;font-size:medium;line-height:normal;font-family:sans-serif;font-variant-ligatures:normal;font-variant-position:normal;font-variant-caps:normal;font-variant-numeric:normal;font-variant-alternates:normal;font-variant-east-asian:normal;font-feature-settings:normal;font-variation-settings:normal;text-indent:0;text-align:start;text-decoration:none;text-decoration-line:none;text-decoration-style:solid;text-decoration-color:#000000;letter-spacing:normal;word-spacing:normal;text-transform:none;writing-mode:lr-tb;direction:ltr;text-orientation:mixed;dominant-baseline:auto;baseline-shift:baseline;text-anchor:start;white-space:normal;shape-padding:0;shape-margin:0;inline-size:0;clip-rule:nonzero;display:inline;overflow:visible;visibility:visible;isolation:auto;mix-blend-mode:normal;color-interpolation:sRGB;color-interpolation-filters:linearRGB;solid-color:#000000;solid-opacity:1;vector-effect:none;fill:#000000;fill-opacity:1;fill-rule:nonzero;stroke:none;stroke-width:1;stroke-linecap:butt;stroke-linejoin:miter;stroke-miterlimit:4;stroke-dasharray:none;stroke-dashoffset:0;stroke-opacity:1.0;color-rendering:auto;image-rendering:auto;shape-rendering:auto;text-rendering:auto;enable-background:accumulate;stop-color:#000000;stop-opacity:1;" />
</g>
\n    </svg>
