<?xml version="1.0" encoding="UTF-8" standalone="no"?>
<svg
   xmlns:dc="http://purl.org/dc/elements/1.1/"
   xmlns:cc="http://creativecommons.org/ns#"
   xmlns:rdf="http://www.w3.org/1999/02/22-rdf-syntax-ns#"
   xmlns:svg="http://www.w3.org/2000/svg"
   xmlns="http://www.w3.org/2000/svg"
   xmlns:sodipodi="http://sodipodi.sourceforge.net/DTD/sodipodi-0.dtd"
   xmlns:inkscape="http://www.inkscape.org/namespaces/inkscape"
   inkscape:version="1.0 (4035a4fb49, 2020-05-01)"
   sodipodi:docname="boop-gtk-term-symbolic.svg"
   id="svg6"
   version="1.1"
   viewBox="0 0 25 25"
   height="25pt"
   width="25pt"><metadata
   id="metadata12">
  <rdf:RDF>
    <cc:Work
       rdf:about="">
      <dc:format>image/svg+xml</dc:format>
      <dc:type
         rdf:resource="http://purl.org/dc/dcmitype/StillImage" />
    </cc:Work>
  </rdf:RDF>
</metadata>
<defs
   id="defs10" />
<sodipodi:namedview
   inkscape:current-layer="svg6"
   inkscape:window-maximized="0"
   inkscape:window-y="0"
   inkscape:window-x="0"
   inkscape:cy="16.666667"
   inkscape:cx="16.666667"
   inkscape:zoom="25.44"
   showgrid="false"
   id="namedview8"
   inkscape:window-height="1052"
   inkscape:window-width="1503"
   inkscape:pageshadow="2"
   inkscape:pageopacity="0"
   guidetolerance="10"
   gridtolerance="10"
   objecttolerance="10"
   borderopacity="1"
   bordercolor="#666666"
   pagecolor="#ffffff" />
<g
   id="surface1">
  <path
     id="path2"
     d="M 2.5 4.167969 C 2.039062 4.167969 1.667969 4.539062 1.667969 5 L 1.667969 20 C 1.667969 20.460938 2.039062 20.832031 2.5 20.832031 L 5 20.832031 C 5.300781 20.835938 5.578125 20.679688 5.730469 20.421875 C 5.882812 20.160156 5.882812 19.839844 5.730469 19.578125 C 5.578125 19.320312 5.300781 19.164062 5 19.167969 L 3.332031 19.167969 L 3.332031 5.832031 L 5 5.832031 C 5.300781 5.835938 5.578125 5.679688 5.730469 5.421875 C 5.882812 5.160156 5.882812 4.839844 5.730469 4.578125 C 5.578125 4.320312 5.300781 4.164062 5 4.167969 Z M 20 4.167969 C 19.699219 4.164062 19.421875 4.320312 19.269531 4.578125 C 19.117188 4.839844 19.117188 5.160156 19.269531 5.421875 C 19.421875 5.679688 19.699219 5.835938 20 5.832031 L 21.667969 5.832031 L 21.667969 19.167969 L 20 19.167969 C 19.699219 19.164062 19.421875 19.320312 19.269531 19.578125 C 19.117188 19.839844 19.117188 20.160156 19.269531 20.421875 C 19.421875 20.679688 19.699219 20.835938 20 20.832031 L 22.5 20.832031 C 22.960938 20.832031 23.332031 20.460938 23.332031 20 L 23.332031 5 C 23.332031 4.539062 22.960938 4.167969 22.5 4.167969 Z M 7.5 8.332031 C 7.199219 8.328125 6.921875 8.488281 6.769531 8.746094 C 6.617188 9.007812 6.617188 9.328125 6.769531 9.585938 C 6.921875 9.847656 7.199219 10.003906 7.5 10 L 17.5 10 C 17.800781 10.003906 18.078125 9.847656 18.230469 9.585938 C 18.382812 9.328125 18.382812 9.007812 18.230469 8.746094 C 18.078125 8.488281 17.800781 8.328125 17.5 8.332031 Z M 7.5 11.667969 C 7.199219 11.664062 6.921875 11.820312 6.769531 12.078125 C 6.617188 12.339844 6.617188 12.660156 6.769531 12.921875 C 6.921875 13.179688 7.199219 13.335938 7.5 13.332031 L 15 13.332031 C 15.300781 13.335938 15.578125 13.179688 15.730469 12.921875 C 15.882812 12.660156 15.882812 12.339844 15.730469 12.078125 C 15.578125 11.820312 15.300781 11.664062 15 11.667969 Z M 7.5 15 C 7.199219 14.996094 6.921875 15.152344 6.769531 15.414062 C 6.617188 15.671875 6.617188 15.992188 6.769531 16.253906 C 6.921875 16.511719 7.199219 16.671875 7.5 16.667969 L 17.5 16.667969 C 17.800781 16.671875 18.078125 16.511719 18.230469 16.253906 C 18.382812 15.992188 18.382812 15.671875 18.230469 15.414062 C 18.078125 15.152344 17.800781 14.996094 17.5 15 Z M 7.5 15 "
     style=" stroke:none;fill-rule:nonzero;fill:rgb(0%,0%,0%);fill-opacity:1;" />
</g>
<g
   style="opacity:1"
   id="g14">
  <path
     id="path16"
     d="M 0,0 V 0"
     style="color:#000000;font-style:normal;font-variant:normal;font-weight:normal;font-stretch:normal;font-size:medium;line-height:normal;font-family:sans-serif;font-variant-ligatures:normal;font-variant-position:normal;font-variant-caps:normal;font-variant-numeric:normal;font-variant-alternates:normal;font-variant-east-asian:normal;font-feature-settings:normal;font-variation-settings:normal;text-indent:0;text-align:start;text-decoration:none;text-decoration-line:none;text-decoration-style:solid;text-decoration-color:#000000;letter-spacing:normal;word-spacing:normal;text-transform:none;writing-mode:lr-tb;direction:ltr;text-orientation:mixed;dominant-baseline:auto;baseline-shift:baseline;text-anchor:start;white-space:normal;shape-padding:0;shape-margin:0;inline-size:0;clip-rule:nonzero;display:inline;overflow:visible;visibility:visible;isolation:auto;mix-blend-mode:normal;color-interpolation:sRGB;color-interpolation-filters:linearRGB;solid-color:#000000;solid-opacity:1;vector-effect:none;fill:#000000;fill-opacity:1;fill-rule:nonzero;stroke:none;stroke-width:1;stroke-linecap:butt;stroke-linejoin:miter;stroke-miterlimit:4;stroke-dasharray:none;stroke-dashoffset:0;stroke-opacity:1.0;color-rendering:auto;image-rendering:auto;shape-rendering:auto;text-rendering:auto;enable-background:accumulate;stop-color:#000000;stop-opacity:1;" />
  <path
     id="path18"
     d="M 0 -0.5 L 0 0.5 L 0 -0.5 z "
     style="color:#000000;font-style:normal;font-variant:normal;font-weight:normal;font-stretch:normal;font-size:medium;line-height:normal;font-family:sans-serif;font-variant-ligatures:normal;font-variant-position:normal;font-variant-caps:normal;font-variant-numeric:normal;font-variant-alternates:normal;font-variant-east-asian:normal;font-feature-settings:normal;font-variation-settings:normal;text-indent:0;text-align:start;text-decoration:none;text-decoration-line:none;text-decoration-style:solid;text-decoration-color:#000000;letter-spacing:normal;word-spacing:normal;text-transform:none;writing-mode:lr-tb;direction:ltr;text-orientation:mixed;dominant-baseline:auto;baseline-shift:baseline;text-anchor:start;white-space:normal;shape-padding:0;shape-margin:0;inline-size:0;clip-rule:nonzero;display:inline;overflow:visible;visibility:visible;isolation:auto;mix-blend-mode:normal;color-interpolation:sRGB;color-interpolation-filters:linearRGB;solid-color:#000000;solid-opacity:1;vector-effect:none;fill:#000000;fill-opacity:1;fill-rule:nonzero;stroke:none;stroke-width:1;stroke-linecap:butt;stroke-linejoin:miter;stroke-miterlimit:4;stroke-dasharray:none;stroke-dashoffset:0;stroke-opacity:1.0;color-rendering:auto;image-rendering:auto;shape-rendering:auto;text-rendering:auto;enable-background:accumulate;stop-color:#000000;stop-opacity:1;" />
</g>
\n    </svg>
