<?xml version="1.0" encoding="UTF-8" standalone="no"?>
<svg
   xmlns:dc="http://purl.org/dc/elements/1.1/"
   xmlns:cc="http://creativecommons.org/ns#"
   xmlns:rdf="http://www.w3.org/1999/02/22-rdf-syntax-ns#"
   xmlns:svg="http://www.w3.org/2000/svg"
   xmlns="http://www.w3.org/2000/svg"
   xmlns:sodipodi="http://sodipodi.sourceforge.net/DTD/sodipodi-0.dtd"
   xmlns:inkscape="http://www.inkscape.org/namespaces/inkscape"
   inkscape:version="1.0 (4035a4fb49, 2020-05-01)"
   sodipodi:docname="boop-gtk-website-symbolic.svg"
   id="svg6"
   version="1.1"
   viewBox="0 0 25 25"
   height="25pt"
   width="25pt"><metadata
   id="metadata12">
  <rdf:RDF>
    <cc:Work
       rdf:about="">
      <dc:format>image/svg+xml</dc:format>
      <dc:type
         rdf:resource="http://purl.org/dc/dcmitype/StillImage" />
    </cc:Work>
  </rdf:RDF>
</metadata>
<defs
   id="defs10" />
<sodipodi:namedview
   inkscape:current-layer="svg6"
   inkscape:window-maximized="0"
   inkscape:window-y="0"
   inkscape:window-x="0"
   inkscape:cy="16.666667"
   inkscape:cx="16.666667"
   inkscape:zoom="25.44"
   showgrid="false"
   id="namedview8"
   inkscape:window-height="1052"
   inkscape:window-width="1503"
   inkscape:pageshadow="2"
   inkscape:pageopacity="0"
   guidetolerance="10"
   gridtolerance="10"
   objecttolerance="10"
   borderopacity="1"
   bordercolor="#666666"
   pagecolor="#ffffff" />
<g
   id="surface1">
  <path
     id="path2"
     d="M 12.5 2.5 C 8.808594 2.5 5.585938 4.515625 3.851562 7.5 L 5.84375 7.5 C 6.714844 6.347656 7.875 5.421875 9.21875 4.84375 C 8.78125 5.582031 8.417969 6.484375 8.136719 7.5 L 9.894531 7.5 C 10.550781 5.449219 11.558594 4.167969 12.5 4.167969 C 13.441406 4.167969 14.449219 5.449219 15.105469 7.5 L 16.863281 7.5 C 16.582031 6.484375 16.21875 5.582031 15.78125 4.84375 C 17.125 5.421875 18.285156 6.347656 19.15625 7.5 L 21.148438 7.5 C 19.414062 4.515625 16.191406 2.5 12.5 2.5 Z M 1.820312 10 L 3.128906 15 L 4.324219 15 L 5.148438 11.9375 L 5.210938 11.9375 L 6.042969 15 L 7.238281 15 L 8.542969 10 L 7.234375 10 L 6.578125 13.316406 L 6.515625 13.316406 L 5.6875 10 L 4.667969 10 L 3.867188 13.316406 L 3.804688 13.316406 L 3.140625 10 Z M 9.140625 10 L 10.445312 15 L 11.644531 15 L 12.464844 11.9375 L 12.527344 11.9375 L 13.363281 15 L 14.554688 15 L 15.859375 10 L 14.550781 10 L 13.894531 13.316406 L 13.835938 13.316406 L 13.007812 10 L 11.988281 10 L 11.1875 13.316406 L 11.121094 13.316406 L 10.457031 10 Z M 16.457031 10 L 17.761719 15 L 18.964844 15 L 19.785156 11.9375 L 19.84375 11.9375 L 20.679688 15 L 21.871094 15 L 23.179688 10 L 21.867188 10 L 21.214844 13.316406 L 21.152344 13.316406 L 20.324219 10 L 19.304688 10 L 18.503906 13.316406 L 18.441406 13.316406 L 17.777344 10 Z M 3.851562 17.5 C 5.585938 20.484375 8.808594 22.5 12.5 22.5 C 16.191406 22.5 19.414062 20.484375 21.148438 17.5 L 19.15625 17.5 C 18.285156 18.652344 17.128906 19.578125 15.78125 20.15625 C 16.21875 19.417969 16.582031 18.515625 16.863281 17.5 L 15.105469 17.5 C 14.449219 19.550781 13.445312 20.832031 12.5 20.832031 C 11.558594 20.832031 10.550781 19.550781 9.894531 17.5 L 8.136719 17.5 C 8.417969 18.515625 8.78125 19.417969 9.21875 20.15625 C 7.875 19.578125 6.714844 18.652344 5.84375 17.5 Z M 3.851562 17.5 "
     style=" stroke:none;fill-rule:nonzero;fill:rgb(0%,0%,0%);fill-opacity:1;" />
</g>
<g
   style="opacity:1"
   id="g14">
  <path
     id="path16"
     d="M 0,0 V 0"
     style="color:#000000;font-style:normal;font-variant:normal;font-weight:normal;font-stretch:normal;font-size:medium;line-height:normal;font-family:sans-serif;font-variant-ligatures:normal;font-variant-position:normal;font-variant-caps:normal;font-variant-numeric:normal;font-variant-alternates:normal;font-variant-east-asian:normal;font-feature-settings:normal;font-variation-settings:normal;text-indent:0;text-align:start;text-decoration:none;text-decoration-line:none;text-decoration-style:solid;text-decoration-color:#000000;letter-spacing:normal;word-spacing:normal;text-transform:none;writing-mode:lr-tb;direction:ltr;text-orientation:mixed;dominant-baseline:auto;baseline-shift:baseline;text-anchor:start;white-space:normal;shape-padding:0;shape-margin:0;inline-size:0;clip-rule:nonzero;display:inline;overflow:visible;visibility:visible;isolation:auto;mix-blend-mode:normal;color-interpolation:sRGB;color-interpolation-filters:linearRGB;solid-color:#000000;solid-opacity:1;vector-effect:none;fill:#000000;fill-opacity:1;fill-rule:nonzero;stroke:none;stroke-width:1;stroke-linecap:butt;stroke-linejoin:miter;stroke-miterlimit:4;stroke-dasharray:none;stroke-dashoffset:0;stroke-opacity:1.0;color-rendering:auto;image-rendering:auto;shape-rendering:auto;text-rendering:auto;enable-background:accumulate;stop-color:#000000;stop-opacity:1;" />
  <path
     id="path18"
     d="M 0 -0.5 L 0 0.5 L 0 -0.5 z "
     style="color:#000000;font-style:normal;font-variant:normal;font-weight:normal;font-stretch:normal;font-size:medium;line-height:normal;font-family:sans-serif;font-variant-ligatures:normal;font-variant-position:normal;font-variant-caps:normal;font-variant-numeric:normal;font-variant-alternates:normal;font-variant-east-asian:normal;font-feature-settings:normal;font-variation-settings:normal;text-indent:0;text-align:start;text-decoration:none;text-decoration-line:none;text-decoration-style:solid;text-decoration-color:#000000;letter-spacing:normal;word-spacing:normal;text-transform:none;writing-mode:lr-tb;direction:ltr;text-orientation:mixed;dominant-baseline:auto;baseline-shift:baseline;text-anchor:start;white-space:normal;shape-padding:0;shape-margin:0;inline-size:0;clip-rule:nonzero;display:inline;overflow:visible;visibility:visible;isolation:auto;mix-blend-mode:normal;color-interpolation:sRGB;color-interpolation-filters:linearRGB;solid-color:#000000;solid-opacity:1;vector-effect:none;fill:#000000;fill-opacity:1;fill-rule:nonzero;stroke:none;stroke-width:1;stroke-linecap:butt;stroke-linejoin:miter;stroke-miterlimit:4;stroke-dasharray:none;stroke-dashoffset:0;stroke-opacity:1.0;color-rendering:auto;image-rendering:auto;shape-rendering:auto;text-rendering:auto;enable-background:accumulate;stop-color:#000000;stop-opacity:1;" />
</g>
\n    </svg>
