<?xml version="1.0" encoding="UTF-8"?>
<svg xmlns="http://www.w3.org/2000/svg" xmlns:xlink="http://www.w3.org/1999/xlink" width="25pt" height="25pt" viewBox="0 0 25 25" version="1.1">
<g id="surface1">
<path style=" stroke:none;fill-rule:nonzero;fill:rgb(0%,0%,0%);fill-opacity:1;" d="M 4.160156 3.324219 C 3.820312 3.324219 3.515625 3.53125 3.386719 3.84375 C 3.257812 4.160156 3.335938 4.519531 3.578125 4.753906 L 7.15625 8.332031 L 5 8.332031 C 4.699219 8.328125 4.421875 8.488281 4.269531 8.746094 C 4.117188 9.007812 4.117188 9.328125 4.269531 9.585938 C 4.421875 9.847656 4.699219 10.003906 5 10 L 9.039062 10 C 9.304688 10.042969 9.578125 9.957031 9.765625 9.765625 C 9.957031 9.578125 10.042969 9.304688 10 9.039062 L 10 5 C 10.003906 4.773438 9.914062 4.558594 9.753906 4.398438 C 9.597656 4.238281 9.378906 4.152344 9.152344 4.15625 C 8.695312 4.164062 8.328125 4.539062 8.332031 5 L 8.332031 7.15625 L 4.753906 3.578125 C 4.597656 3.417969 4.382812 3.324219 4.160156 3.324219 Z M 20.816406 3.324219 C 20.601562 3.332031 20.394531 3.421875 20.246094 3.578125 L 16.667969 7.15625 L 16.667969 5 C 16.667969 4.773438 16.582031 4.558594 16.421875 4.398438 C 16.261719 4.238281 16.046875 4.152344 15.820312 4.15625 C 15.359375 4.164062 14.992188 4.539062 15 5 L 15 9.039062 C 14.957031 9.304688 15.042969 9.578125 15.234375 9.765625 C 15.421875 9.957031 15.695312 10.042969 15.960938 10 L 20 10 C 20.300781 10.003906 20.578125 9.847656 20.730469 9.585938 C 20.882812 9.328125 20.882812 9.007812 20.730469 8.746094 C 20.578125 8.488281 20.300781 8.328125 20 8.332031 L 17.84375 8.332031 L 21.421875 4.753906 C 21.667969 4.515625 21.742188 4.148438 21.609375 3.832031 C 21.476562 3.515625 21.160156 3.316406 20.816406 3.324219 Z M 9.152344 14.992188 C 9.121094 14.992188 9.089844 14.996094 9.058594 15 L 5 15 C 4.699219 14.996094 4.421875 15.152344 4.269531 15.414062 C 4.117188 15.671875 4.117188 15.992188 4.269531 16.253906 C 4.421875 16.511719 4.699219 16.671875 5 16.667969 L 7.15625 16.667969 L 3.578125 20.246094 C 3.359375 20.453125 3.273438 20.761719 3.347656 21.054688 C 3.425781 21.347656 3.652344 21.574219 3.945312 21.652344 C 4.238281 21.726562 4.546875 21.640625 4.753906 21.421875 L 8.332031 17.84375 L 8.332031 20 C 8.328125 20.300781 8.488281 20.578125 8.746094 20.730469 C 9.007812 20.882812 9.328125 20.882812 9.585938 20.730469 C 9.847656 20.578125 10.003906 20.300781 10 20 L 10 15.9375 C 10.035156 15.695312 9.957031 15.449219 9.792969 15.269531 C 9.632812 15.085938 9.394531 14.984375 9.152344 14.992188 Z M 15.824219 14.992188 C 15.585938 14.992188 15.355469 15.097656 15.195312 15.277344 C 15.039062 15.460938 14.964844 15.703125 15 15.941406 L 15 20 C 14.996094 20.300781 15.152344 20.578125 15.414062 20.730469 C 15.671875 20.882812 15.992188 20.882812 16.253906 20.730469 C 16.511719 20.578125 16.671875 20.300781 16.667969 20 L 16.667969 17.84375 L 20.246094 21.421875 C 20.453125 21.640625 20.761719 21.726562 21.054688 21.652344 C 21.347656 21.574219 21.574219 21.347656 21.652344 21.054688 C 21.726562 20.761719 21.640625 20.453125 21.421875 20.246094 L 17.84375 16.667969 L 20 16.667969 C 20.300781 16.671875 20.578125 16.511719 20.730469 16.253906 C 20.882812 15.992188 20.882812 15.671875 20.730469 15.414062 C 20.578125 15.152344 20.300781 14.996094 20 15 L 15.929688 15 C 15.894531 14.996094 15.859375 14.992188 15.824219 14.992188 Z M 15.824219 14.992188 "/>
</g>
</svg>
