<?xml version="1.0" encoding="UTF-8"?>
<svg xmlns="http://www.w3.org/2000/svg" xmlns:xlink="http://www.w3.org/1999/xlink" width="25pt" height="25pt" viewBox="0 0 25 25" version="1.1">
<g id="surface1">
<path style=" stroke:none;fill-rule:nonzero;fill:rgb(0%,0%,0%);fill-opacity:1;" d="M 5.820312 2.488281 C 5.359375 2.496094 4.992188 2.875 5 3.332031 L 5 7.019531 L 4.589844 6.78125 C 4.226562 6.566406 3.761719 6.660156 3.503906 6.992188 C 3.25 7.320312 3.28125 7.792969 3.578125 8.089844 L 5.246094 9.753906 C 5.40625 9.917969 5.621094 10 5.832031 10 C 6.046875 10 6.261719 9.917969 6.421875 9.753906 L 8.089844 8.089844 C 8.386719 7.792969 8.417969 7.320312 8.160156 6.992188 C 7.902344 6.660156 7.441406 6.566406 7.078125 6.78125 L 6.667969 7.019531 L 6.667969 3.332031 C 6.667969 3.109375 6.582031 2.890625 6.421875 2.730469 C 6.261719 2.574219 6.046875 2.484375 5.820312 2.488281 Z M 12.488281 2.488281 C 12.027344 2.496094 11.660156 2.875 11.667969 3.332031 L 11.667969 7.023438 L 11.253906 6.78125 C 10.894531 6.570312 10.429688 6.660156 10.171875 6.992188 C 9.914062 7.320312 9.949219 7.792969 10.246094 8.089844 L 11.910156 9.753906 C 12.074219 9.917969 12.285156 10 12.5 10 C 12.714844 10 12.925781 9.917969 13.089844 9.753906 L 14.753906 8.089844 C 15.050781 7.792969 15.082031 7.320312 14.828125 6.992188 C 14.570312 6.660156 14.105469 6.570312 13.746094 6.78125 L 13.332031 7.023438 L 13.332031 3.332031 C 13.335938 3.109375 13.25 2.890625 13.089844 2.730469 C 12.929688 2.574219 12.710938 2.484375 12.488281 2.488281 Z M 19.152344 2.488281 C 18.695312 2.496094 18.328125 2.875 18.332031 3.332031 L 18.332031 7.023438 L 17.921875 6.78125 C 17.558594 6.570312 17.097656 6.660156 16.839844 6.992188 C 16.582031 7.320312 16.613281 7.792969 16.910156 8.089844 L 18.578125 9.753906 C 18.742188 9.917969 18.953125 10 19.167969 10 C 19.378906 10 19.59375 9.917969 19.753906 9.753906 L 21.421875 8.089844 C 21.71875 7.792969 21.75 7.320312 21.496094 6.992188 C 21.238281 6.660156 20.773438 6.570312 20.410156 6.78125 L 20 7.023438 L 20 3.332031 C 20.003906 3.109375 19.914062 2.890625 19.753906 2.730469 C 19.597656 2.574219 19.378906 2.484375 19.152344 2.488281 Z M 3.332031 11.667969 C 3.03125 11.664062 2.753906 11.820312 2.601562 12.078125 C 2.449219 12.339844 2.449219 12.660156 2.601562 12.921875 C 2.753906 13.179688 3.03125 13.335938 3.332031 13.332031 L 21.667969 13.332031 C 21.96875 13.335938 22.246094 13.179688 22.398438 12.921875 C 22.550781 12.660156 22.550781 12.339844 22.398438 12.078125 C 22.246094 11.820312 21.96875 11.664062 21.667969 11.667969 Z M 8.320312 14.988281 C 7.859375 14.996094 7.492188 15.375 7.5 15.832031 L 7.5 19.523438 L 7.089844 19.28125 C 6.726562 19.070312 6.261719 19.160156 6.003906 19.492188 C 5.75 19.820312 5.78125 20.292969 6.078125 20.589844 L 7.746094 22.253906 C 7.90625 22.417969 8.121094 22.5 8.332031 22.5 C 8.546875 22.5 8.761719 22.417969 8.921875 22.253906 L 10.589844 20.589844 C 10.886719 20.292969 10.917969 19.820312 10.660156 19.492188 C 10.402344 19.160156 9.941406 19.070312 9.578125 19.28125 L 9.167969 19.523438 L 9.167969 15.832031 C 9.167969 15.609375 9.082031 15.390625 8.921875 15.230469 C 8.761719 15.074219 8.546875 14.984375 8.320312 14.988281 Z M 16.652344 14.988281 C 16.195312 14.996094 15.828125 15.375 15.832031 15.832031 L 15.832031 19.523438 L 15.421875 19.28125 C 15.058594 19.070312 14.597656 19.160156 14.339844 19.492188 C 14.082031 19.820312 14.113281 20.292969 14.410156 20.589844 L 16.078125 22.253906 C 16.242188 22.417969 16.453125 22.5 16.667969 22.5 C 16.878906 22.5 17.09375 22.417969 17.253906 22.253906 L 18.921875 20.589844 C 19.21875 20.292969 19.25 19.820312 18.996094 19.492188 C 18.738281 19.160156 18.273438 19.070312 17.910156 19.28125 L 17.5 19.523438 L 17.5 15.832031 C 17.503906 15.609375 17.414062 15.390625 17.253906 15.230469 C 17.097656 15.074219 16.878906 14.984375 16.652344 14.988281 Z M 16.652344 14.988281 "/>
</g>
</svg>
