<?xml version="1.0" encoding="UTF-8"?>
<svg xmlns="http://www.w3.org/2000/svg" xmlns:xlink="http://www.w3.org/1999/xlink" width="30pt" height="30pt" viewBox="0 0 30 30" version="1.1">
<g id="surface1">
<path style=" stroke:none;fill-rule:nonzero;fill:rgb(0%,0%,0%);fill-opacity:1;" d="M 14.800781 1.972656 C 9.5 1.972656 4.929688 5.199219 2.984375 9.808594 C 2.835938 10.132812 2.878906 10.511719 3.089844 10.796875 C 3.308594 11.082031 3.660156 11.234375 4.007812 11.1875 C 4.363281 11.140625 4.664062 10.90625 4.800781 10.578125 C 6.445312 6.683594 10.296875 3.949219 14.800781 3.949219 C 17.457031 3.949219 19.882812 4.894531 21.773438 6.476562 C 22.1875 6.828125 22.808594 6.773438 23.160156 6.355469 C 23.511719 5.9375 23.457031 5.316406 23.035156 4.964844 C 20.8125 3.097656 17.933594 1.972656 14.800781 1.972656 Z M 14.800781 5.921875 C 13.765625 5.921875 12.765625 6.097656 11.84375 6.425781 C 11.328125 6.605469 11.058594 7.175781 11.242188 7.6875 C 11.421875 8.199219 11.988281 8.46875 12.5 8.289062 C 13.222656 8.035156 13.992188 7.894531 14.800781 7.894531 C 18.628906 7.894531 21.710938 10.976562 21.710938 14.800781 L 21.710938 24.671875 C 21.707031 25.027344 21.890625 25.355469 22.199219 25.539062 C 22.507812 25.714844 22.886719 25.714844 23.195312 25.539062 C 23.503906 25.355469 23.6875 25.027344 23.683594 24.671875 L 23.683594 14.800781 C 23.683594 9.910156 19.695312 5.921875 14.800781 5.921875 Z M 25.167969 8.117188 C 24.820312 8.121094 24.5 8.3125 24.328125 8.613281 C 24.15625 8.917969 24.15625 9.285156 24.324219 9.589844 C 25.175781 11.136719 25.65625 12.910156 25.65625 14.800781 L 25.65625 21.710938 C 25.652344 22.066406 25.839844 22.398438 26.148438 22.578125 C 26.457031 22.753906 26.832031 22.753906 27.140625 22.578125 C 27.449219 22.398438 27.636719 22.066406 27.632812 21.710938 L 27.632812 14.800781 C 27.632812 12.574219 27.0625 10.46875 26.058594 8.640625 C 25.882812 8.3125 25.539062 8.109375 25.167969 8.117188 Z M 8.535156 8.949219 C 8.246094 8.964844 7.976562 9.109375 7.800781 9.339844 C 6.621094 10.847656 5.921875 12.746094 5.921875 14.800781 L 5.921875 24.671875 C 5.917969 25.027344 6.101562 25.355469 6.410156 25.539062 C 6.71875 25.714844 7.097656 25.714844 7.40625 25.539062 C 7.714844 25.355469 7.898438 25.027344 7.894531 24.671875 L 7.894531 14.800781 C 7.894531 13.195312 8.4375 11.726562 9.355469 10.554688 C 9.597656 10.25 9.640625 9.832031 9.464844 9.488281 C 9.285156 9.140625 8.925781 8.933594 8.535156 8.949219 Z M 14.800781 9.867188 C 12.089844 9.867188 9.867188 12.089844 9.867188 14.800781 L 9.867188 26.644531 C 9.863281 27 10.050781 27.332031 10.359375 27.511719 C 10.667969 27.6875 11.042969 27.6875 11.351562 27.511719 C 11.660156 27.332031 11.847656 27 11.84375 26.644531 L 11.84375 14.800781 C 11.84375 13.15625 13.15625 11.84375 14.800781 11.84375 C 16.449219 11.84375 17.761719 13.15625 17.761719 14.800781 C 17.761719 15.984375 17.714844 17.21875 17.636719 18.417969 C 17.609375 18.773438 17.773438 19.113281 18.070312 19.308594 C 18.363281 19.503906 18.742188 19.53125 19.0625 19.375 C 19.378906 19.210938 19.585938 18.898438 19.605469 18.542969 C 19.683594 17.3125 19.738281 16.039062 19.738281 14.800781 C 19.738281 12.089844 17.515625 9.867188 14.800781 9.867188 Z M 2.941406 13.003906 C 2.4375 13.027344 2.03125 13.429688 2.003906 13.933594 C 1.984375 14.21875 1.972656 14.507812 1.972656 14.800781 L 1.972656 21.710938 C 1.96875 22.066406 2.15625 22.398438 2.464844 22.578125 C 2.773438 22.753906 3.148438 22.753906 3.457031 22.578125 C 3.765625 22.398438 3.953125 22.066406 3.949219 21.710938 L 3.949219 14.800781 C 3.949219 14.554688 3.953125 14.308594 3.96875 14.070312 C 3.992188 13.785156 3.898438 13.507812 3.695312 13.304688 C 3.5 13.097656 3.226562 12.988281 2.941406 13.003906 Z M 14.789062 13.800781 C 14.242188 13.8125 13.808594 14.257812 13.816406 14.800781 L 13.816406 21.546875 C 13.8125 21.90625 13.996094 22.238281 14.304688 22.414062 C 14.613281 22.597656 14.992188 22.597656 15.300781 22.414062 C 15.609375 22.238281 15.792969 21.90625 15.789062 21.546875 L 15.789062 14.800781 C 15.792969 14.535156 15.6875 14.277344 15.5 14.089844 C 15.3125 13.902344 15.054688 13.796875 14.789062 13.800781 Z M 18.734375 21.941406 C 18.191406 21.949219 17.753906 22.398438 17.761719 22.945312 L 17.761719 26.644531 C 17.757812 27 17.945312 27.332031 18.253906 27.511719 C 18.5625 27.6875 18.9375 27.6875 19.246094 27.511719 C 19.554688 27.332031 19.742188 27 19.738281 26.644531 L 19.738281 22.945312 C 19.742188 22.675781 19.636719 22.417969 19.449219 22.230469 C 19.257812 22.042969 19 21.9375 18.734375 21.941406 Z M 14.828125 24.546875 C 14.566406 24.546875 14.316406 24.652344 14.128906 24.835938 C 13.941406 25.019531 13.839844 25.273438 13.839844 25.535156 L 13.816406 26.625 C 13.804688 27.167969 14.238281 27.621094 14.785156 27.632812 C 15.328125 27.644531 15.777344 27.207031 15.789062 26.664062 L 15.8125 25.574219 C 15.820312 25.304688 15.71875 25.046875 15.535156 24.851562 C 15.351562 24.660156 15.09375 24.550781 14.828125 24.546875 Z M 14.828125 24.546875 "/>
</g>
</svg>
