<?xml version="1.0" encoding="UTF-8"?>
<svg xmlns="http://www.w3.org/2000/svg" xmlns:xlink="http://www.w3.org/1999/xlink" width="25pt" height="25pt" viewBox="0 0 25 25" version="1.1">
<g id="surface1">
<path style=" stroke:none;fill-rule:nonzero;fill:rgb(0%,0%,0%);fill-opacity:1;" d="M 11.667969 1.667969 C 10.746094 1.667969 10 2.414062 10 3.332031 L 10 5 L 15 5 L 15 3.332031 C 15 2.414062 14.253906 1.667969 13.332031 1.667969 Z M 15 5 L 15 5.832031 C 15 6.753906 14.253906 7.5 13.332031 7.5 L 11.667969 7.5 C 10.746094 7.5 10 6.753906 10 5.832031 L 10 5 L 3.332031 5 C 2.414062 5 1.667969 5.746094 1.667969 6.667969 L 1.667969 20 C 1.667969 20.921875 2.414062 21.667969 3.332031 21.667969 L 21.667969 21.667969 C 22.585938 21.667969 23.332031 20.921875 23.332031 20 L 23.332031 6.667969 C 23.332031 5.746094 22.585938 5 21.667969 5 Z M 8.332031 9.167969 C 9.128906 9.167969 9.375 9.730469 9.375 9.730469 C 10.085938 9.730469 10.417969 10.507812 10.417969 11.421875 C 10.417969 11.878906 10.234375 12.253906 10.234375 12.253906 C 10.304688 12.300781 10.429688 12.449219 10.398438 12.707031 C 10.34375 13.1875 10.148438 13.3125 10.027344 13.320312 C 9.980469 13.773438 9.535156 14.347656 9.375 14.433594 L 9.375 15.183594 C 9.6875 16.199219 11.210938 15.703125 11.667969 17.5 L 5 17.5 C 5.457031 15.703125 6.980469 16.199219 7.292969 15.183594 L 7.292969 14.433594 C 7.136719 14.347656 6.6875 13.773438 6.640625 13.320312 C 6.519531 13.3125 6.328125 13.1875 6.269531 12.707031 C 6.238281 12.449219 6.359375 12.300781 6.433594 12.253906 C 6.433594 12.253906 6.25 11.839844 6.25 11.421875 C 6.25 10.1875 6.859375 9.167969 8.332031 9.167969 Z M 14.167969 12.5 L 19.167969 12.5 C 19.625 12.5 20 12.875 20 13.332031 C 20 13.792969 19.625 14.167969 19.167969 14.167969 L 14.167969 14.167969 C 13.707031 14.167969 13.332031 13.792969 13.332031 13.332031 C 13.332031 12.875 13.707031 12.5 14.167969 12.5 Z M 14.167969 15.832031 L 19.167969 15.832031 C 19.625 15.832031 20 16.207031 20 16.667969 C 20 17.125 19.625 17.5 19.167969 17.5 L 14.167969 17.5 C 13.707031 17.5 13.332031 17.125 13.332031 16.667969 C 13.332031 16.207031 13.707031 15.832031 14.167969 15.832031 Z M 14.167969 15.832031 "/>
</g>
</svg>
