<?xml version="1.0" encoding="UTF-8"?>
<svg xmlns="http://www.w3.org/2000/svg" xmlns:xlink="http://www.w3.org/1999/xlink" width="22pt" height="22pt" viewBox="0 0 22 22" version="1.1">
<g id="surface1">
<path style=" stroke:none;fill-rule:nonzero;fill:rgb(0%,0%,0%);fill-opacity:1;" d="M 10.253906 14.808594 C 10.21875 15.511719 9.941406 16.203125 9.40625 16.742188 L 7.941406 18.207031 C 6.796875 19.351562 4.9375 19.351562 3.792969 18.207031 C 2.648438 17.0625 2.648438 15.203125 3.792969 14.058594 L 5.257812 12.59375 C 5.832031 12.019531 6.582031 11.734375 7.332031 11.734375 C 8.085938 11.734375 8.835938 12.023438 9.40625 12.59375 L 10.445312 11.554688 C 9.613281 10.726562 8.507812 10.265625 7.332031 10.265625 C 6.160156 10.265625 5.054688 10.726562 4.222656 11.554688 L 2.753906 13.023438 C 1.925781 13.851562 1.464844 14.957031 1.464844 16.132812 C 1.464844 17.308594 1.925781 18.414062 2.753906 19.246094 C 3.585938 20.078125 4.691406 20.535156 5.867188 20.535156 C 7.042969 20.535156 8.148438 20.074219 8.976562 19.246094 L 10.445312 17.777344 C 11.273438 16.945312 11.734375 15.839844 11.734375 14.667969 C 11.734375 14.261719 11.675781 13.867188 11.570312 13.488281 Z M 19.246094 2.753906 C 18.414062 1.925781 17.308594 1.464844 16.132812 1.464844 C 14.957031 1.464844 13.851562 1.925781 13.023438 2.753906 L 11.554688 4.222656 C 10.726562 5.054688 10.265625 6.160156 10.265625 7.332031 C 10.265625 8.507812 10.726562 9.613281 11.554688 10.445312 L 12.59375 9.40625 C 11.445312 8.265625 11.445312 6.402344 12.59375 5.257812 L 14.058594 3.792969 C 14.628906 3.21875 15.382812 2.9375 16.132812 2.9375 C 16.882812 2.9375 17.636719 3.222656 18.207031 3.792969 C 19.351562 4.9375 19.351562 6.796875 18.207031 7.941406 L 16.742188 9.40625 C 16.203125 9.941406 15.511719 10.21875 14.808594 10.253906 L 13.488281 11.570312 C 13.867188 11.675781 14.261719 11.734375 14.667969 11.734375 C 15.839844 11.734375 16.945312 11.273438 17.777344 10.445312 L 19.246094 8.976562 C 20.074219 8.148438 20.535156 7.042969 20.535156 5.867188 C 20.535156 4.691406 20.074219 3.585938 19.246094 2.753906 Z M 19.246094 2.753906 "/>
<path style="fill:none;stroke-width:1.466667;stroke-linecap:round;stroke-linejoin:miter;stroke:rgb(0%,0%,0%);stroke-opacity:1;stroke-miterlimit:10;" d="M 7.332031 14.667969 L 14.667969 7.332031 "/>
</g>
</svg>
