<?xml version="1.0" encoding="UTF-8"?>
<svg xmlns="http://www.w3.org/2000/svg" xmlns:xlink="http://www.w3.org/1999/xlink" width="22pt" height="22pt" viewBox="0 0 22 22" version="1.1">
<g id="surface1">
<path style=" stroke:none;fill-rule:nonzero;fill:rgb(0%,0%,0%);fill-opacity:1;" d="M 8.066406 14.300781 C 8.066406 12.578125 8.761719 11.019531 9.890625 9.890625 C 11.019531 8.761719 12.578125 8.066406 14.300781 8.066406 C 14.335938 8.066406 14.375 8.074219 14.410156 8.074219 C 14.28125 7.417969 14.109375 6.835938 13.90625 6.628906 C 13.433594 6.160156 10.984375 5.867188 10.265625 5.867188 C 9.546875 5.867188 7.097656 6.160156 6.628906 6.628906 C 6.15625 7.097656 5.867188 9.546875 5.867188 10.265625 C 5.867188 10.984375 6.160156 13.433594 6.628906 13.90625 C 6.835938 14.109375 7.417969 14.28125 8.074219 14.410156 C 8.074219 14.375 8.066406 14.335938 8.066406 14.300781 Z M 8.066406 14.300781 "/>
<path style=" stroke:none;fill-rule:nonzero;fill:rgb(0%,0%,0%);fill-opacity:1;" d="M 5.589844 5.589844 C 6.382812 4.796875 8.429688 4.53125 9.535156 4.441406 L 9.535156 2.933594 L 2.933594 2.933594 L 2.933594 9.535156 L 4.441406 9.535156 C 4.53125 8.429688 4.796875 6.382812 5.589844 5.589844 Z M 14.300781 9.535156 C 11.667969 9.535156 9.535156 11.667969 9.535156 14.300781 C 9.535156 16.933594 11.667969 19.066406 14.300781 19.066406 C 16.933594 19.066406 19.066406 16.933594 19.066406 14.300781 C 19.066406 11.667969 16.933594 9.535156 14.300781 9.535156 Z M 14.300781 9.535156 "/>
</g>
</svg>
