<?xml version="1.0" encoding="UTF-8"?>
<svg xmlns="http://www.w3.org/2000/svg" xmlns:xlink="http://www.w3.org/1999/xlink" width="30pt" height="30pt" viewBox="0 0 30 30" version="1.1">
<g id="surface1">
<path style=" stroke:none;fill-rule:nonzero;fill:rgb(0%,0%,0%);fill-opacity:1;" d="M 4.933594 3.949219 C 3.84375 3.949219 2.960938 4.832031 2.960938 5.921875 L 2.960938 13.816406 C 2.960938 14.90625 3.84375 15.789062 4.933594 15.789062 L 8.921875 15.789062 C 8.945312 17.550781 8.773438 21.328125 7.070312 24.132812 C 6.8125 24.53125 6.875 25.058594 7.222656 25.386719 C 7.570312 25.714844 8.101562 25.746094 8.488281 25.460938 C 8.488281 25.460938 12.828125 22.148438 12.828125 15.789062 L 12.828125 5.921875 C 12.828125 4.832031 11.945312 3.949219 10.855469 3.949219 Z M 18.75 3.949219 C 17.660156 3.949219 16.777344 4.832031 16.777344 5.921875 L 16.777344 13.816406 C 16.777344 14.90625 17.660156 15.789062 18.75 15.789062 L 22.734375 15.789062 C 22.761719 17.550781 22.589844 21.328125 20.886719 24.132812 C 20.628906 24.53125 20.6875 25.058594 21.039062 25.386719 C 21.386719 25.714844 21.917969 25.746094 22.304688 25.460938 C 22.304688 25.460938 26.644531 22.148438 26.644531 15.789062 L 26.644531 5.921875 C 26.644531 4.832031 25.761719 3.949219 24.671875 3.949219 Z M 18.75 3.949219 "/>
</g>
</svg>
