<?xml version="1.0" encoding="UTF-8"?>
<svg xmlns="http://www.w3.org/2000/svg" xmlns:xlink="http://www.w3.org/1999/xlink" width="25pt" height="25pt" viewBox="0 0 25 25" version="1.1">
<g id="surface1">
<path style=" stroke:none;fill-rule:nonzero;fill:rgb(0%,0%,0%);fill-opacity:1;" d="M 2.5 4.167969 C 2.039062 4.167969 1.667969 4.539062 1.667969 5 L 1.667969 20 C 1.667969 20.460938 2.039062 20.832031 2.5 20.832031 L 5 20.832031 C 5.300781 20.835938 5.578125 20.679688 5.730469 20.421875 C 5.882812 20.160156 5.882812 19.839844 5.730469 19.578125 C 5.578125 19.320312 5.300781 19.164062 5 19.167969 L 3.332031 19.167969 L 3.332031 5.832031 L 5 5.832031 C 5.300781 5.835938 5.578125 5.679688 5.730469 5.421875 C 5.882812 5.160156 5.882812 4.839844 5.730469 4.578125 C 5.578125 4.320312 5.300781 4.164062 5 4.167969 Z M 20 4.167969 C 19.699219 4.164062 19.421875 4.320312 19.269531 4.578125 C 19.117188 4.839844 19.117188 5.160156 19.269531 5.421875 C 19.421875 5.679688 19.699219 5.835938 20 5.832031 L 21.667969 5.832031 L 21.667969 19.167969 L 20 19.167969 C 19.699219 19.164062 19.421875 19.320312 19.269531 19.578125 C 19.117188 19.839844 19.117188 20.160156 19.269531 20.421875 C 19.421875 20.679688 19.699219 20.835938 20 20.832031 L 22.5 20.832031 C 22.960938 20.832031 23.332031 20.460938 23.332031 20 L 23.332031 5 C 23.332031 4.539062 22.960938 4.167969 22.5 4.167969 Z M 7.5 8.332031 C 7.199219 8.328125 6.921875 8.488281 6.769531 8.746094 C 6.617188 9.007812 6.617188 9.328125 6.769531 9.585938 C 6.921875 9.847656 7.199219 10.003906 7.5 10 L 17.5 10 C 17.800781 10.003906 18.078125 9.847656 18.230469 9.585938 C 18.382812 9.328125 18.382812 9.007812 18.230469 8.746094 C 18.078125 8.488281 17.800781 8.328125 17.5 8.332031 Z M 7.5 11.667969 C 7.199219 11.664062 6.921875 11.820312 6.769531 12.078125 C 6.617188 12.339844 6.617188 12.660156 6.769531 12.921875 C 6.921875 13.179688 7.199219 13.335938 7.5 13.332031 L 15 13.332031 C 15.300781 13.335938 15.578125 13.179688 15.730469 12.921875 C 15.882812 12.660156 15.882812 12.339844 15.730469 12.078125 C 15.578125 11.820312 15.300781 11.664062 15 11.667969 Z M 7.5 15 C 7.199219 14.996094 6.921875 15.152344 6.769531 15.414062 C 6.617188 15.671875 6.617188 15.992188 6.769531 16.253906 C 6.921875 16.511719 7.199219 16.671875 7.5 16.667969 L 17.5 16.667969 C 17.800781 16.671875 18.078125 16.511719 18.230469 16.253906 C 18.382812 15.992188 18.382812 15.671875 18.230469 15.414062 C 18.078125 15.152344 17.800781 14.996094 17.5 15 Z M 7.5 15 "/>
</g>
</svg>
