<?xml version="1.0" encoding="UTF-8"?>
<svg xmlns="http://www.w3.org/2000/svg" xmlns:xlink="http://www.w3.org/1999/xlink" width="30pt" height="30pt" viewBox="0 0 30 30" version="1.1">
<g id="surface1">
<path style=" stroke:none;fill-rule:nonzero;fill:rgb(0%,0%,0%);fill-opacity:1;" d="M 14.890625 2.960938 C 10 2.960938 7.222656 5.703125 7.148438 9.667969 L 7.148438 9.867188 L 11.464844 9.867188 L 11.464844 9.667969 C 11.5625 7.917969 12.769531 6.785156 14.601562 6.785156 C 16.421875 6.785156 17.632812 7.835938 17.632812 9.320312 C 17.632812 10.800781 17.011719 11.570312 14.957031 12.792969 C 12.753906 14.085938 11.875 15.519531 12.085938 18.070312 L 12.113281 18.75 L 16.339844 18.75 L 16.339844 18.101562 C 16.339844 16.570312 16.929688 15.789062 19.050781 14.5625 C 21.296875 13.242188 22.457031 11.570312 22.457031 9.175781 C 22.457031 5.492188 19.449219 2.960938 14.890625 2.960938 Z M 14.316406 21.710938 C 12.695312 21.710938 11.683594 22.652344 11.683594 24.183594 C 11.683594 25.703125 12.699219 26.644531 14.316406 26.644531 C 15.9375 26.644531 16.9375 25.703125 16.9375 24.183594 C 16.9375 22.652344 15.941406 21.710938 14.316406 21.710938 Z M 14.316406 21.710938 "/>
</g>
</svg>
